# This file uses centimeters as units for non-parametric coordinates.

mtllib LifePointsContainer_LP_OBJ.mtl
g default
v 0.082632 0.417368 0.450000
v 0.082632 0.417368 -0.450000
v 0.082632 0.582632 0.450000
v 0.082632 0.582632 -0.450000
v -0.082632 0.582632 0.450000
v -0.082632 0.582632 -0.450000
v -0.082632 0.417368 0.450000
v -0.082632 0.417368 -0.450000
v 0.082632 0.732631 0.450000
v 0.082632 0.732631 -0.450000
v -0.082632 0.732631 -0.450000
v -0.082632 0.732631 0.450000
v -0.082632 0.267369 0.450000
v -0.082632 0.267369 -0.450000
v 0.082632 0.267369 -0.450000
v 0.082632 0.267369 0.450000
v 0.232632 0.417367 0.450000
v 0.232632 0.417367 -0.450000
v 0.232632 0.582632 -0.450000
v 0.232632 0.582632 0.450000
v -0.232632 0.582632 0.450000
v -0.232632 0.582632 -0.450000
v -0.232632 0.417367 -0.450000
v -0.232632 0.417367 0.450000
vt 0.252099 0.000158
vt 0.236860 0.175302
vt 0.212352 0.170238
vt 0.100862 0.495798
vt 0.002583 0.174392
vt 0.175594 0.200115
vt 0.170628 0.224622
vt 0.085683 0.458169
vt 0.133666 0.424429
vt 0.200189 0.264258
vt 0.225025 0.274567
vt 0.163418 0.436790
vt 0.438816 0.242454
vt 0.262487 0.238579
vt 0.267092 0.213032
vt 0.130498 0.497330
vt 0.247375 0.197784
vt 0.240560 0.251393
vt 0.190063 0.241300
vt 0.197221 0.189947
vt 0.155907 0.465959
vt 0.364468 0.062749
vt 0.115252 0.474032
vt 0.056192 0.358108
vt 0.343044 0.397205
vt 0.384888 0.356724
vt 0.364273 0.377443
vt 0.077526 0.376563
vt 0.038901 0.335229
vt 0.118755 0.448441
vt 0.340488 0.048161
vt 0.124098 0.507754
vt 0.115909 0.031497
vt 0.220744 0.000008
vt 0.069073 0.066115
vt 0.091512 0.047325
vt 0.383195 0.084808
vt 0.137397 0.479001
vt 0.397328 0.331581
vt 0.148394 0.501166
vt 0.400794 0.107848
vt 0.436496 0.211272
vt 0.052664 0.089017
vt 0.095891 0.487415
vt 0.025188 0.309550
vt 0.000000 0.205745
vn 1.000000 0.000000 0.000000
vn 1.000000 0.000000 0.000000
vn 1.000000 0.000000 0.000000
vn 1.000000 0.000000 0.000000
vn 0.000000 1.000000 0.000000
vn 0.000000 1.000000 0.000000
vn 0.000000 1.000000 0.000000
vn 0.000000 1.000000 0.000000
vn -1.000000 0.000000 -0.000000
vn -1.000000 0.000000 -0.000000
vn -1.000000 0.000000 -0.000000
vn -1.000000 0.000000 -0.000000
vn 0.000000 -1.000000 0.000000
vn 0.000000 -1.000000 0.000000
vn 0.000000 -1.000000 0.000000
vn 0.000000 -1.000000 0.000000
vn 0.000000 0.000000 -1.000000
vn 0.000000 0.000000 -1.000000
vn 0.000000 0.000000 -1.000000
vn 0.000000 0.000000 -1.000000
vn 0.000000 0.000000 1.000000
vn 0.000000 0.000000 1.000000
vn 0.000000 0.000000 1.000000
vn 0.000000 0.000000 1.000000
vn 1.000000 0.000000 0.000000
vn 1.000000 0.000000 0.000000
vn 1.000000 0.000000 0.000000
vn 1.000000 0.000000 0.000000
vn 0.000000 0.000000 -1.000000
vn 0.000000 0.000000 -1.000000
vn -1.000000 0.000000 -0.000000
vn -1.000000 0.000000 -0.000000
vn -1.000000 0.000000 -0.000000
vn -1.000000 0.000000 -0.000000
vn 0.000000 0.000000 1.000000
vn 0.000000 0.000000 1.000000
vn -1.000000 0.000000 -0.000000
vn -1.000000 0.000000 -0.000000
vn -1.000000 0.000000 -0.000000
vn -1.000000 0.000000 -0.000000
vn 0.000000 0.000000 -1.000000
vn 0.000000 0.000000 -1.000000
vn 1.000000 0.000000 0.000000
vn 1.000000 0.000000 0.000000
vn 1.000000 0.000000 0.000000
vn 1.000000 0.000000 0.000000
vn 0.000000 0.000000 1.000000
vn 0.000000 0.000000 1.000000
vn -0.000001 -1.000000 0.000000
vn -0.000001 -1.000000 0.000000
vn -0.000001 -1.000000 0.000000
vn -0.000001 -1.000000 0.000000
vn 0.000000 0.000000 -1.000000
vn 0.000000 0.000000 -1.000000
vn -0.000001 1.000000 -0.000000
vn -0.000001 1.000000 -0.000000
vn -0.000001 1.000000 -0.000000
vn -0.000001 1.000000 -0.000000
vn 0.000000 0.000000 1.000000
vn 0.000000 0.000000 1.000000
vn 0.000001 1.000000 0.000000
vn 0.000001 1.000000 0.000000
vn 0.000001 1.000000 0.000000
vn 0.000001 1.000000 0.000000
vn 0.000000 0.000000 -1.000000
vn 0.000000 0.000000 -1.000000
vn 0.000001 -1.000000 0.000000
vn 0.000001 -1.000000 0.000000
vn 0.000001 -1.000000 0.000000
vn 0.000001 -1.000000 0.000000
vn 0.000000 0.000000 1.000000
vn 0.000000 0.000000 1.000000
s off
g pCube3
usemtl initialShadingGroup
f 17/1/1 18/2/2 19/3/3 20/34/4
f 9/5/5 10/6/6 11/7/7 12/46/8
f 21/9/9 22/10/10 23/11/11 24/12/12
f 13/13/13 14/14/14 15/15/15 16/42/16
s 1
f 2/17/17 8/18/18 6/19/19 4/20/20
s 2
f 7/21/21 1/38/22 3/23/23 5/30/24
s off
f 3/35/25 4/20/26 10/6/27 9/43/28
s 1
f 4/20/20 6/19/19 11/7/29 10/6/30
s off
f 6/19/31 5/29/32 12/45/33 11/7/34
s 2
f 5/30/24 3/23/23 9/44/35 12/8/36
s off
f 7/26/37 8/18/38 14/14/39 13/39/40
s 1
f 8/18/18 2/17/17 15/15/41 14/14/42
s off
f 2/17/43 1/37/44 16/41/45 15/15/46
s 2
f 1/38/22 7/21/21 13/40/47 16/16/48
s off
f 1/22/49 2/17/50 18/2/51 17/31/52
s 1
f 2/17/17 4/20/20 19/3/53 18/2/54
s off
f 4/20/55 3/36/56 20/33/57 19/3/58
s 2
f 3/23/23 1/38/22 17/32/59 20/4/60
s off
f 5/24/61 6/19/62 22/10/63 21/28/64
s 1
f 6/19/19 8/18/18 23/11/65 22/10/66
s off
f 8/18/67 7/27/68 24/25/69 23/11/70
s 2
f 7/21/21 5/30/24 21/9/71 24/12/72
g default
v -0.500000 0.000000 0.500000
v 0.500000 0.000000 0.500000
v -0.500000 1.000000 0.500000
v 0.500000 1.000000 0.500000
v -0.500000 1.000000 -0.500000
v 0.500000 1.000000 -0.500000
v -0.500000 0.000000 -0.500000
v 0.500000 0.000000 -0.500000
v -0.400000 0.900000 -0.500000
v 0.400000 0.900000 -0.500000
v 0.400000 0.100000 -0.500000
v -0.400000 0.100000 -0.500000
v 0.500000 0.100000 -0.400000
v 0.500000 0.100000 0.400000
v 0.500000 0.900000 -0.400000
v 0.500000 0.900000 0.400000
v -0.500000 0.100000 -0.400000
v -0.500000 0.100000 0.400000
v -0.500000 0.900000 0.400000
v -0.500000 0.900000 -0.400000
v -0.400000 0.100000 0.500000
v 0.400000 0.100000 0.500000
v 0.400000 0.900000 0.500000
v -0.400000 0.900000 0.500000
v -0.400000 1.000000 0.400000
v 0.400000 1.000000 0.400000
v 0.400000 1.000000 -0.400000
v -0.400000 1.000000 -0.400000
v -0.400000 0.000000 -0.400000
v 0.400000 0.000000 -0.400000
v 0.400000 0.000000 0.400000
v -0.400000 0.000000 0.400000
v -0.400000 0.100000 0.400000
v 0.400000 0.100000 0.400000
v 0.400000 0.900000 0.400000
v -0.400000 0.900000 0.400000
v -0.400000 0.900000 0.400000
v 0.400000 0.900000 0.400000
v 0.400000 0.900000 -0.400000
v -0.400000 0.900000 -0.400000
v -0.400000 0.900000 -0.400000
v 0.400000 0.900000 -0.400000
v 0.400000 0.100000 -0.400000
v -0.400000 0.100000 -0.400000
v -0.400000 0.100000 -0.400000
v 0.400000 0.100000 -0.400000
v 0.400000 0.100000 0.400000
v -0.400000 0.100000 0.400000
v 0.400000 0.100000 -0.400000
v 0.400000 0.100000 0.400000
v 0.400000 0.900000 -0.400000
v 0.400000 0.900000 0.400000
v -0.400000 0.100000 -0.400000
v -0.400000 0.100000 0.400000
v -0.400000 0.900000 0.400000
v -0.400000 0.900000 -0.400000
vt 0.905965 0.732119
vt 0.534797 0.227385
vt 0.658161 0.288886
vt 0.611286 0.413935
vt 0.337317 0.952019
vt 0.732189 0.284431
vt 0.564186 0.469807
vt 0.528261 0.629970
vt 0.850419 0.578059
vt 0.636820 0.490967
vt 0.785535 0.541324
vt 0.730120 0.670382
vt 0.171034 0.878245
vt 0.532685 0.015324
vt 0.485613 0.171501
vt 0.748288 0.882019
vt 0.703139 0.385111
vt 0.603582 0.041787
vt 0.748295 0.103683
vt 0.682990 0.227936
vt 0.968410 0.157485
vt 0.675654 0.860860
vt 0.526939 0.810502
vt 0.582354 0.681444
vt 0.563867 0.641552
vt 0.610134 0.451090
vt 0.626276 0.476138
vt 0.586748 0.629448
vt 0.579813 -0.000000
vt 0.801891 0.534738
vt 0.748607 0.710275
vt 0.738007 0.685612
vt 0.520283 0.186085
vt 0.594129 0.026210
vt 0.543819 0.175791
vt 0.765153 0.098472
vt 0.697745 0.269888
vt 0.689597 0.243763
vt 0.702339 0.900737
vt 0.686198 0.875688
vt 0.725726 0.722378
vt 0.634402 0.456070
vt 0.510583 0.817088
vt 0.574466 0.666215
vt 0.528522 0.211510
vt 0.450469 0.355161
vt 0.673651 0.280659
vt 0.620490 0.429651
vt 0.714018 0.276921
vt 0.662219 0.438149
vt 0.584060 0.471340
vt 0.546997 0.635903
vt 0.552392 0.018253
vt 0.765476 0.715924
vt 0.503780 0.178980
vt 0.728414 0.880486
vt 0.852468 0.725591
vt 1.000000 0.723541
vt 0.481653 0.982629
vt 0.512262 0.838293
vt 0.467394 0.350168
vt 0.769653 0.788587
vt 0.826120 0.924900
vt 0.962433 0.868432
vt 0.839052 0.554877
vt 0.800566 0.121601
vt 0.817022 0.133209
vt 0.830634 0.524821
vt 0.794624 0.090854
vt 0.399079 0.319743
vt 0.415332 0.331636
vt 0.473422 0.796950
vt 0.456090 0.786706
vt 0.420847 0.362302
vt 0.481840 0.827005
vt 0.856383 0.565120
vt 0.306376 0.937001
vt 0.365132 0.801659
vt 0.784212 0.721857
vt 0.229790 0.742903
vt 0.601453 0.619938
vt 0.997950 0.576010
vt 0.559049 0.167327
vt 0.836498 0.448239
vt 0.899626 0.314880
vt 0.766267 0.251752
vt 0.681885 0.441462
vt 0.367927 0.807683
vt 0.829845 0.106795
vt 0.711020 0.731889
vt 0.779155 0.245360
vt 0.917720 0.296050
vn 0.000000 0.000000 1.000000
vn 0.000000 0.000000 1.000000
vn 0.000000 0.000000 1.000000
vn 0.000000 0.000000 1.000000
vn 0.000000 1.000000 0.000000
vn 0.000000 1.000000 0.000000
vn 0.000000 1.000000 0.000000
vn 0.000000 1.000000 0.000000
vn 0.000000 0.000000 -1.000000
vn 0.000000 0.000000 -1.000000
vn 0.000000 0.000000 -1.000000
vn 0.000000 0.000000 -1.000000
vn 0.000000 -1.000000 0.000000
vn 0.000000 -1.000000 0.000000
vn 0.000000 -1.000000 0.000000
vn 0.000000 -1.000000 0.000000
vn 1.000000 0.000000 0.000000
vn 1.000000 0.000000 0.000000
vn 1.000000 0.000000 0.000000
vn 1.000000 0.000000 0.000000
vn -1.000000 0.000000 0.000000
vn -1.000000 0.000000 0.000000
vn -1.000000 0.000000 0.000000
vn -1.000000 0.000000 0.000000
vn 0.000000 0.000000 -1.000000
vn 0.000000 0.000000 -1.000000
vn 0.000000 0.000000 -1.000000
vn 0.000000 0.000000 -1.000000
vn 0.000000 0.000000 -1.000000
vn 0.000000 0.000000 -1.000000
vn 0.000000 0.000000 -1.000000
vn 0.000000 0.000000 -1.000000
vn 1.000000 -0.000000 0.000000
vn 1.000000 -0.000000 0.000000
vn 1.000000 -0.000000 0.000000
vn 1.000000 -0.000000 0.000000
vn 1.000000 0.000000 0.000000
vn 1.000000 0.000000 0.000000
vn 1.000000 0.000000 0.000000
vn 1.000000 0.000000 0.000000
vn -1.000000 -0.000000 0.000000
vn -1.000000 -0.000000 0.000000
vn -1.000000 -0.000000 0.000000
vn -1.000000 -0.000000 0.000000
vn -1.000000 0.000000 0.000000
vn -1.000000 0.000000 0.000000
vn -1.000000 0.000000 0.000000
vn -1.000000 0.000000 0.000000
vn 0.000000 0.000000 1.000000
vn 0.000000 0.000000 1.000000
vn 0.000000 0.000000 1.000000
vn 0.000000 0.000000 1.000000
vn 0.000000 0.000000 1.000000
vn 0.000000 0.000000 1.000000
vn 0.000000 0.000000 1.000000
vn 0.000000 0.000000 1.000000
vn 0.000000 1.000000 0.000000
vn 0.000000 1.000000 0.000000
vn 0.000000 1.000000 0.000000
vn 0.000000 1.000000 0.000000
vn 0.000000 1.000000 -0.000000
vn 0.000000 1.000000 -0.000000
vn 0.000000 1.000000 -0.000000
vn 0.000000 1.000000 -0.000000
vn 0.000000 -1.000000 -0.000000
vn 0.000000 -1.000000 -0.000000
vn 0.000000 -1.000000 -0.000000
vn 0.000000 -1.000000 -0.000000
vn 0.000000 -1.000000 0.000000
vn 0.000000 -1.000000 0.000000
vn 0.000000 -1.000000 0.000000
vn 0.000000 -1.000000 0.000000
vn 0.000000 1.000000 0.000000
vn 0.000000 1.000000 0.000000
vn 0.000000 1.000000 0.000000
vn 0.000000 1.000000 0.000000
vn -1.000000 0.000000 0.000000
vn -1.000000 0.000000 0.000000
vn -1.000000 0.000000 0.000000
vn -1.000000 0.000000 0.000000
vn 0.000000 -1.000000 0.000000
vn 0.000000 -1.000000 0.000000
vn 0.000000 -1.000000 0.000000
vn 0.000000 -1.000000 0.000000
vn 1.000000 0.000000 0.000000
vn 1.000000 0.000000 0.000000
vn 1.000000 0.000000 0.000000
vn 1.000000 0.000000 0.000000
vn 0.000000 0.000000 -1.000000
vn 0.000000 0.000000 -1.000000
vn 0.000000 0.000000 -1.000000
vn 0.000000 0.000000 -1.000000
vn -1.000000 0.000000 0.000000
vn -1.000000 0.000000 0.000000
vn -1.000000 0.000000 0.000000
vn -1.000000 0.000000 0.000000
vn 0.000000 0.000000 1.000000
vn 0.000000 0.000000 1.000000
vn 0.000000 0.000000 1.000000
vn 0.000000 0.000000 1.000000
vn 1.000000 0.000000 0.000000
vn 1.000000 0.000000 0.000000
vn 1.000000 0.000000 0.000000
vn 1.000000 0.000000 0.000000
vn 0.000000 -1.000000 0.000000
vn 0.000000 -1.000000 0.000000
vn 0.000000 -1.000000 0.000000
vn 0.000000 -1.000000 0.000000
vn -1.000000 0.000000 0.000000
vn -1.000000 0.000000 0.000000
vn -1.000000 0.000000 0.000000
vn -1.000000 0.000000 0.000000
vn 0.000000 1.000000 0.000000
vn 0.000000 1.000000 0.000000
vn 0.000000 1.000000 0.000000
vn 0.000000 1.000000 0.000000
vn 1.000000 0.000000 0.000000
vn 1.000000 0.000000 0.000000
vn 1.000000 0.000000 0.000000
vn 1.000000 0.000000 0.000000
vn 0.000000 0.000000 1.000000
vn 0.000000 0.000000 1.000000
vn 0.000000 0.000000 1.000000
vn 0.000000 0.000000 1.000000
vn -1.000000 0.000000 0.000000
vn -1.000000 0.000000 0.000000
vn -1.000000 0.000000 0.000000
vn -1.000000 0.000000 0.000000
vn 0.000000 0.000000 -1.000000
vn 0.000000 0.000000 -1.000000
vn 0.000000 0.000000 -1.000000
vn 0.000000 0.000000 -1.000000
vn 1.000000 0.000000 0.000000
vn 1.000000 0.000000 0.000000
vn 1.000000 0.000000 0.000000
vn 1.000000 0.000000 0.000000
vn 0.000000 1.000000 0.000000
vn 0.000000 1.000000 0.000000
vn 0.000000 1.000000 0.000000
vn 0.000000 1.000000 0.000000
vn 0.000000 0.000000 1.000000
vn 0.000000 0.000000 1.000000
vn 0.000000 0.000000 1.000000
vn 0.000000 0.000000 1.000000
vn 0.000000 -1.000000 0.000000
vn 0.000000 -1.000000 0.000000
vn 0.000000 -1.000000 0.000000
vn 0.000000 -1.000000 0.000000
vn 0.000000 0.000000 -1.000000
vn 0.000000 0.000000 -1.000000
vn 0.000000 0.000000 -1.000000
vn 0.000000 0.000000 -1.000000
vn 0.000000 1.000000 0.000000
vn 0.000000 1.000000 0.000000
vn 0.000000 1.000000 0.000000
vn 0.000000 1.000000 0.000000
vn 0.000000 0.000000 -1.000000
vn 0.000000 0.000000 -1.000000
vn 0.000000 0.000000 -1.000000
vn 0.000000 0.000000 -1.000000
vn 0.000000 -1.000000 0.000000
vn 0.000000 -1.000000 0.000000
vn 0.000000 -1.000000 0.000000
vn 0.000000 -1.000000 0.000000
vn 0.000000 0.000000 1.000000
vn 0.000000 0.000000 1.000000
vn 0.000000 0.000000 1.000000
vn 0.000000 0.000000 1.000000
s off
g pCube1
usemtl initialShadingGroup
f 57/47/73 58/110/74 59/109/75 60/108/76
f 61/51/77 62/134/78 63/106/79 64/105/80
f 65/55/81 66/128/82 67/104/83 68/103/84
f 69/59/85 70/126/86 71/124/87 72/123/88
f 74/63/89 73/132/90 75/131/91 76/130/92
f 77/67/93 78/138/94 79/137/95 80/135/96
s 1
f 29/71/97 30/72/98 34/73/99 33/74/100
f 30/72/98 32/114/101 35/76/102 34/73/99
f 32/114/101 31/77/103 36/78/104 35/76/102
f 31/77/103 29/71/97 33/74/100 36/78/104
s 2
f 26/79/105 32/75/106 37/80/107 38/81/108
f 32/75/106 30/115/109 39/82/110 37/80/107
f 30/115/109 28/83/111 40/84/112 39/82/110
f 28/83/111 26/79/105 38/81/108 40/84/112
s 3
f 31/77/113 25/85/114 42/86/115 41/87/116
f 25/85/114 27/121/117 43/89/118 42/86/115
f 27/121/117 29/71/119 44/90/120 43/89/118
f 29/71/119 31/77/113 41/87/116 44/90/120
s 4
f 25/120/121 26/79/122 46/91/123 45/92/124
f 26/79/122 28/83/125 47/93/126 46/91/123
f 28/83/125 27/88/127 48/94/128 47/93/126
f 27/88/127 25/120/121 45/92/124 48/94/128
s 5
f 27/88/129 28/83/130 50/95/131 49/96/132
f 28/83/130 30/115/133 51/112/134 50/95/131
f 30/72/133 29/71/135 52/98/136 51/97/134
f 29/71/135 27/121/129 49/118/132 52/98/136
s 6
f 31/77/137 32/114/138 54/111/139 53/100/140
f 32/75/138 26/79/141 55/101/142 54/99/139
f 26/79/141 25/120/143 56/117/144 55/101/142
f 25/85/143 31/77/137 53/100/140 56/102/144
s off
f 45/92/145 46/91/146 58/48/147 57/107/148
f 46/91/149 47/93/150 59/49/151 58/48/152
f 47/93/153 48/94/154 60/50/155 59/49/156
f 48/94/157 45/92/158 57/107/159 60/50/160
f 49/96/161 50/95/162 62/52/163 61/133/164
f 50/95/165 51/112/166 63/113/167 62/52/168
f 51/97/169 52/98/170 64/54/171 63/53/172
f 52/98/173 49/118/174 61/119/175 64/54/176
f 33/74/177 34/73/178 66/56/179 65/127/180
f 34/73/181 35/76/182 67/57/183 66/56/184
f 35/76/185 36/78/186 68/58/187 67/57/188
f 36/78/189 33/74/190 65/127/191 68/58/192
f 53/100/193 54/111/194 70/122/195 69/125/196
f 54/99/197 55/101/198 71/61/199 70/60/200
f 55/101/201 56/117/202 72/116/203 71/61/204
f 56/102/205 53/100/206 69/125/207 72/62/208
f 38/81/209 37/80/210 73/64/211 74/129/212
f 37/80/213 39/82/214 75/65/215 73/64/216
f 39/82/217 40/84/218 76/66/219 75/65/220
f 40/84/221 38/81/222 74/129/223 76/66/224
f 41/87/225 42/86/226 78/68/227 77/136/228
f 42/86/229 43/89/230 79/69/231 78/68/232
f 43/89/233 44/90/234 80/70/235 79/69/236
f 44/90/237 41/87/238 77/136/239 80/70/240
g default
v -0.450000 0.417367 0.082632
v 0.450000 0.417367 0.082632
v -0.450000 0.582632 0.082632
v 0.450000 0.582632 0.082632
v -0.450000 0.582632 -0.082632
v 0.450000 0.582632 -0.082632
v -0.450000 0.417367 -0.082632
v 0.450000 0.417367 -0.082632
v -0.450000 0.732632 0.082632
v 0.450000 0.732632 0.082632
v 0.450000 0.732632 -0.082632
v -0.450000 0.732632 -0.082632
v -0.450000 0.267369 -0.082632
v 0.450000 0.267369 -0.082632
v 0.450000 0.267369 0.082632
v -0.450000 0.267369 0.082632
v -0.450000 0.417367 0.232632
v 0.450000 0.417367 0.232632
v 0.450000 0.582632 0.232632
v -0.450000 0.582632 0.232632
v -0.450000 0.582632 -0.232632
v 0.450000 0.582632 -0.232632
v 0.450000 0.417367 -0.232632
v -0.450000 0.417367 -0.232632
vt 0.287433 0.655076
vt 0.184714 0.794925
vt 0.118003 0.713867
vt 0.266251 0.638505
vt 0.248368 0.592403
vt 0.104099 0.794742
vt 0.170947 0.430203
vt 0.259701 0.570118
vt 0.303097 0.551150
vt 0.108638 0.835099
vt 0.459173 0.467740
vt 0.325357 0.562576
vt 0.344408 0.607006
vt 0.136798 0.844655
vt 0.438279 0.755989
vt 0.333146 0.630393
vt 0.169680 0.821018
vt 0.478384 0.488201
vt 0.128334 0.817962
vt 0.102390 0.690374
vt 0.329482 0.587048
vt 0.308593 0.636888
vt 0.262634 0.613671
vt 0.283254 0.566099
vt 0.127851 0.852845
vt 0.386837 0.397881
vt 0.247249 0.391690
vt 0.356663 0.389358
vt 0.490527 0.514442
vt 0.148341 0.828703
vt 0.192883 0.412524
vt 0.219511 0.400419
vt 0.159349 0.775065
vt 0.091856 0.663724
vt 0.138569 0.794228
vt 0.368475 0.804742
vt 0.419583 0.776902
vt 0.394202 0.791355
vt 0.153268 0.853044
vt 0.502037 0.681192
vt 0.501336 0.541343
vt 0.508122 0.650525
vt 0.106100 0.825662
vt 0.099883 0.499063
vt 0.085517 0.635312
vt 0.089007 0.528582
vn 0.000000 0.000000 1.000000
vn 0.000000 0.000000 1.000000
vn 0.000000 0.000000 1.000000
vn 0.000000 0.000000 1.000000
vn 0.000000 1.000000 0.000000
vn 0.000000 1.000000 0.000000
vn 0.000000 1.000000 0.000000
vn 0.000000 1.000000 0.000000
vn 0.000000 0.000000 -1.000000
vn 0.000000 0.000000 -1.000000
vn 0.000000 0.000000 -1.000000
vn 0.000000 0.000000 -1.000000
vn 0.000000 -1.000000 0.000000
vn 0.000000 -1.000000 0.000000
vn 0.000000 -1.000000 0.000000
vn 0.000000 -1.000000 0.000000
vn 1.000000 0.000000 0.000000
vn 1.000000 0.000000 0.000000
vn 1.000000 0.000000 0.000000
vn 1.000000 0.000000 0.000000
vn -1.000000 0.000000 0.000000
vn -1.000000 0.000000 0.000000
vn -1.000000 0.000000 0.000000
vn -1.000000 0.000000 0.000000
vn 0.000000 0.000000 1.000000
vn 0.000000 0.000000 1.000000
vn 0.000000 0.000000 1.000000
vn 0.000000 0.000000 1.000000
vn 1.000000 0.000000 0.000000
vn 1.000000 0.000000 0.000000
vn 0.000000 0.000000 -1.000000
vn 0.000000 0.000000 -1.000000
vn 0.000000 0.000000 -1.000000
vn 0.000000 0.000000 -1.000000
vn -1.000000 0.000000 0.000000
vn -1.000000 0.000000 0.000000
vn 0.000000 0.000000 -1.000000
vn 0.000000 0.000000 -1.000000
vn 0.000000 0.000000 -1.000000
vn 0.000000 0.000000 -1.000000
vn 1.000000 0.000000 0.000000
vn 1.000000 0.000000 0.000000
vn 0.000000 0.000000 1.000000
vn 0.000000 0.000000 1.000000
vn 0.000000 0.000000 1.000000
vn 0.000000 0.000000 1.000000
vn -1.000000 0.000000 0.000000
vn -1.000000 0.000000 0.000000
vn 0.000000 -1.000000 -0.000000
vn 0.000000 -1.000000 -0.000000
vn 0.000000 -1.000000 -0.000000
vn 0.000000 -1.000000 -0.000000
vn 1.000000 0.000000 0.000000
vn 1.000000 0.000000 0.000000
vn 0.000000 1.000000 -0.000000
vn 0.000000 1.000000 -0.000000
vn 0.000000 1.000000 -0.000000
vn 0.000000 1.000000 -0.000000
vn -1.000000 0.000000 0.000000
vn -1.000000 0.000000 0.000000
vn 0.000000 1.000000 0.000000
vn 0.000000 1.000000 0.000000
vn 0.000000 1.000000 0.000000
vn 0.000000 1.000000 0.000000
vn 1.000000 0.000000 0.000000
vn 1.000000 0.000000 0.000000
vn 0.000000 -1.000000 0.000000
vn 0.000000 -1.000000 0.000000
vn 0.000000 -1.000000 0.000000
vn 0.000000 -1.000000 0.000000
vn -1.000000 0.000000 0.000000
vn -1.000000 0.000000 0.000000
s off
g pCube2
usemtl initialShadingGroup
f 97/139/241 98/140/242 99/171/243 100/142/244
f 89/143/245 90/184/246 91/182/247 92/146/248
f 101/147/249 102/166/250 103/164/251 104/150/252
f 93/151/253 94/180/254 95/178/255 96/154/256
s 1
f 82/155/257 88/168/258 86/157/259 84/173/260
s 2
f 87/159/261 81/160/262 83/161/263 85/162/264
s off
f 83/161/265 84/172/266 90/183/267 89/143/268
s 1
f 84/173/260 86/157/259 91/181/269 90/144/270
s off
f 86/169/271 85/162/272 92/146/273 91/145/274
s 2
f 85/162/264 83/161/263 89/143/275 92/146/276
s off
f 87/159/277 88/167/278 94/179/279 93/151/280
s 1
f 88/168/258 82/155/257 95/177/281 94/152/282
s off
f 82/175/283 81/160/284 96/154/285 95/153/286
s 2
f 81/160/262 87/159/261 93/151/287 96/154/288
s off
f 81/160/289 82/176/290 98/174/291 97/139/292
s 1
f 82/155/257 84/173/260 99/171/293 98/140/294
s off
f 84/158/295 83/161/296 100/142/297 99/141/298
s 2
f 83/161/263 81/160/262 97/139/299 100/142/300
s off
f 85/162/301 86/170/302 102/165/303 101/147/304
s 1
f 86/157/259 88/168/258 103/163/305 102/148/306
s off
f 88/156/307 87/159/308 104/150/309 103/149/310
s 2
f 87/159/261 85/162/264 101/147/311 104/150/312
