# This file uses centimeters as units for non-parametric coordinates.

mtllib Barrel_LP_OBJ.mtl
g default
v 0.475784 0.363788 -0.345677
v 0.181733 0.363788 -0.559318
v -0.181733 0.363788 -0.559318
v -0.475784 0.363788 -0.345677
v -0.588102 0.363788 0.000000
v -0.475784 0.363788 0.345677
v -0.181733 0.363788 0.559318
v 0.181733 0.363788 0.559318
v 0.475784 0.363788 0.345677
v 0.588101 0.363788 -0.000000
v 0.809017 1.039975 -0.587785
v 0.309017 1.039975 -0.951057
v -0.309017 1.039975 -0.951057
v -0.809017 1.039975 -0.587785
v -1.000000 1.039975 0.000000
v -0.809017 1.039975 0.587785
v -0.309017 1.039975 0.951057
v 0.309017 1.039975 0.951057
v 0.809017 1.039975 0.587785
v 1.000000 1.039975 0.000000
v 0.000000 0.363788 0.000000
v 0.809017 1.239975 -0.587785
v 0.309017 1.239975 -0.951057
v -0.309017 1.239975 -0.951057
v -0.809017 1.239975 -0.587785
v -1.000000 1.239975 0.000000
v -0.809017 1.239975 0.587785
v -0.309017 1.239975 0.951057
v 0.309017 1.239975 0.951057
v 0.809017 1.239975 0.587785
v 1.000000 1.239975 0.000000
v 0.809017 2.039975 -0.587785
v 0.309017 2.039975 -0.951057
v -0.309017 2.039975 -0.951057
v -0.809017 2.039975 -0.587785
v -1.000000 2.039975 -0.000000
v -0.809017 2.039975 0.587785
v -0.309017 2.039975 0.951057
v 0.309017 2.039975 0.951057
v 0.809017 2.039975 0.587785
v 1.000000 2.039975 0.000000
v 0.809017 2.239975 -0.587785
v 0.309017 2.239975 -0.951056
v -0.309017 2.239975 -0.951057
v -0.809017 2.239975 -0.587785
v -1.000000 2.239975 -0.000000
v -0.809017 2.239975 0.587785
v -0.309017 2.239975 0.951057
v 0.309017 2.239975 0.951057
v 0.809017 2.239975 0.587785
v 1.000000 2.239975 0.000000
v 0.475784 2.906938 -0.345678
v 0.181733 2.906938 -0.559318
v -0.181733 2.906938 -0.559318
v -0.475784 2.906938 -0.345677
v -0.588102 2.906938 -0.000000
v -0.475784 2.906938 0.345677
v -0.181733 2.906938 0.559318
v 0.181733 2.906938 0.559318
v 0.475784 2.906938 0.345677
v 0.588101 2.906938 -0.000000
v 0.851550 1.039975 -0.618687
v 0.325263 1.039975 -1.001057
v 0.325263 1.239975 -1.001057
v 0.851550 1.239975 -0.618687
v -0.325263 1.039975 -1.001057
v -0.325263 1.239975 -1.001057
v -0.851550 1.039975 -0.618687
v -0.851550 1.239975 -0.618687
v -1.052573 1.039975 0.000000
v -1.052573 1.239975 0.000000
v -0.851550 1.039975 0.618687
v -0.851550 1.239975 0.618687
v -0.325263 1.039975 1.001057
v -0.325263 1.239975 1.001057
v 0.325263 1.039975 1.001057
v 0.325263 1.239975 1.001057
v 0.851550 1.039975 0.618687
v 0.851550 1.239975 0.618687
v 1.052573 1.039975 0.000000
v 1.052573 1.239975 0.000000
v 0.851550 2.039975 -0.618687
v 0.325263 2.039975 -1.001057
v 0.325263 2.239975 -1.001056
v 0.851550 2.239975 -0.618687
v -0.325263 2.039975 -1.001057
v -0.325263 2.239975 -1.001057
v -0.851550 2.039975 -0.618687
v -0.851550 2.239975 -0.618687
v -1.052573 2.039975 -0.000000
v -1.052573 2.239975 -0.000000
v -0.851550 2.039975 0.618687
v -0.851550 2.239975 0.618687
v -0.325263 2.039975 1.001057
v -0.325263 2.239975 1.001057
v 0.325263 2.039975 1.001057
v 0.325263 2.239975 1.001057
v 0.851550 2.039975 0.618687
v 0.851550 2.239975 0.618687
v 1.052573 2.039975 0.000000
v 1.052573 2.239975 0.000000
v 0.390719 2.906938 -0.283874
v 0.149241 2.906938 -0.459318
v -0.149241 2.906938 -0.459318
v -0.390719 2.906938 -0.283874
v -0.482955 2.906938 -0.000000
v -0.390719 2.906938 0.283874
v -0.149241 2.906938 0.459318
v 0.149241 2.906938 0.459318
v 0.390719 2.906938 0.283874
v 0.482955 2.906938 -0.000000
v 0.390719 2.856938 -0.283874
v 0.149241 2.856938 -0.459318
v 0.000000 2.856938 -0.000000
v -0.149241 2.856938 -0.459318
v -0.390719 2.856938 -0.283874
v -0.482955 2.856938 -0.000000
v -0.390719 2.856938 0.283874
v -0.149241 2.856938 0.459318
v 0.149241 2.856938 0.459318
v 0.390719 2.856938 0.283874
v 0.482955 2.856938 0.000000
vt 0.336028 0.705351
vt 0.291728 0.699150
vt 0.067116 0.239072
vt 0.068805 0.331738
vt 0.256308 0.725347
vt 0.065586 0.146516
vt 0.236721 0.765562
vt 0.079629 0.978918
vt 0.250690 0.807344
vt 0.079146 0.887720
vt 0.282885 0.838400
vt 0.077288 0.795037
vt 0.326938 0.838026
vt 0.075577 0.702381
vt 0.366423 0.817004
vt 0.073885 0.609721
vt 0.379680 0.774990
vt 0.072192 0.517060
vt 0.371888 0.730942
vt 0.070499 0.424400
vt 0.309929 0.770211
vt 0.353339 0.229035
vt 0.765000 0.633225
vt 0.302684 0.302869
vt 0.717898 0.654885
vt 0.654238 0.352827
vt 0.705385 0.353276
vt 0.754082 0.370931
vt 0.794296 0.403838
vt 0.821369 0.448218
vt 0.832225 0.499058
vt 0.825636 0.550625
vt 0.076060 0.331694
vt 0.074369 0.239031
vt 0.103737 0.238384
vt 0.105444 0.331037
vt 0.072826 0.146346
vt 0.101919 0.145558
vt 0.087002 0.981444
vt 0.116991 0.981622
vt 0.086357 0.887814
vt 0.115450 0.887026
vt 0.084539 0.794989
vt 0.113907 0.794341
vt 0.082832 0.702335
vt 0.112216 0.701678
vt 0.081139 0.609676
vt 0.110523 0.609017
vt 0.079446 0.517016
vt 0.108830 0.516357
vt 0.077753 0.424355
vt 0.107137 0.423696
vt 0.112699 0.330992
vt 0.110987 0.238335
vt 0.014299 0.241318
vt 0.014534 0.334000
vt 0.109130 0.145652
vt 0.014222 0.148750
vt 0.108647 0.054454
vt 0.015198 0.981270
vt 0.122690 0.886856
vt 0.016147 0.890076
vt 0.121160 0.794300
vt 0.015744 0.797375
vt 0.119471 0.701634
vt 0.015487 0.704703
vt 0.117777 0.608973
vt 0.015249 0.612028
vt 0.116084 0.516312
vt 0.015011 0.519352
vt 0.114391 0.423651
vt 0.014773 0.426676
vt 0.021788 0.334069
vt 0.021552 0.241392
vt 0.050927 0.241205
vt 0.051179 0.333874
vt 0.021464 0.148694
vt 0.050566 0.148363
vt 0.022530 0.983912
vt 0.052513 0.984560
vt 0.023355 0.890283
vt 0.052457 0.889952
vt 0.022994 0.797440
vt 0.052369 0.797253
vt 0.022742 0.704771
vt 0.052133 0.704576
vt 0.022504 0.612097
vt 0.051894 0.611900
vt 0.022265 0.519422
vt 0.051656 0.519224
vt 0.022027 0.426746
vt 0.051417 0.426548
vt 0.058434 0.333942
vt 0.058177 0.241271
vt 0.779492 0.655030
vt 0.823261 0.612855
vt 0.057775 0.148570
vt 0.724179 0.680303
vt 0.058723 0.057375
vt 0.648390 0.327197
vt 0.059699 0.889895
vt 0.710103 0.327415
vt 0.059622 0.797327
vt 0.767258 0.348307
vt 0.059387 0.704646
vt 0.814244 0.386878
vt 0.059148 0.611969
vt 0.845811 0.438822
vt 0.058910 0.519293
vt 0.858400 0.498286
vt 0.058672 0.426617
vt 0.850590 0.558564
vt 0.769815 0.640255
vt 0.809218 0.602135
vt 0.720153 0.663171
vt 0.654328 0.344417
vt 0.706916 0.344890
vt 0.758281 0.363518
vt 0.800715 0.398237
vt 0.829281 0.445058
vt 0.840737 0.498697
vt 0.833788 0.553102
vt 0.300270 0.213382
vt 0.802348 0.597098
vt 0.248107 0.231893
vt 0.216808 0.277535
vt 0.218313 0.332830
vt 0.252029 0.376702
vt 0.305101 0.392382
vt 0.357261 0.373845
vt 0.388563 0.328230
vt 0.387055 0.272907
vt 0.978798 0.597379
vt 0.931379 0.691932
vt 0.992231 0.492460
vt 0.970162 0.389014
vt 0.915078 0.298717
vt 0.833176 0.231786
vt 0.733667 0.195879
vt 0.653748 0.819750
vt 0.759163 0.809687
vt 0.855314 0.765457
vt 0.618604 0.431310
vt 0.618205 0.341580
vt 0.619003 0.521039
vt 0.619401 0.610769
vt 0.619800 0.700498
vt 0.620199 0.790227
vt 0.620598 0.879957
vt 0.620997 0.969686
vt 0.617407 0.162122
vt 0.617806 0.251851
vt 0.666499 0.659770
vt 0.357261 0.373845
vt 0.667390 0.668251
vt 0.663115 0.685507
vt 0.021408 0.054086
vt 0.051391 0.054734
vt 0.628141 0.194634
vt 0.059954 0.981926
vt 0.617008 0.072392
vt 0.013967 0.056719
vt 0.071285 0.051751
vt 0.101275 0.051928
vt 0.500860 0.072909
vt 0.504849 0.970203
vt 0.124390 0.978872
vt 0.140572 0.788104
vt 0.145073 0.732160
vt 0.063886 0.054500
vt 0.502455 0.431826
vt 0.502056 0.342097
vt 0.502854 0.521556
vt 0.503253 0.611285
vt 0.503652 0.701015
vt 0.504051 0.790744
vt 0.504450 0.880473
vt 0.501259 0.162638
vt 0.501658 0.252367
vt 0.436424 0.656191
vt 0.370273 0.615725
vt 0.475502 0.779863
vt 0.457458 0.855282
vt 0.351915 0.930663
vt 0.274611 0.936808
vt 0.170305 0.859725
vt 0.181650 0.665082
vt 0.240578 0.614673
vt 0.465666 0.704096
vt 0.420934 0.897896
vt 0.222796 0.915240
vt 0.295175 0.601666
vn 0.508599 -0.501288 -0.700027
vn 0.508599 -0.501288 -0.700027
vn 0.508599 -0.501288 -0.700027
vn 0.508599 -0.501288 -0.700027
vn -0.000000 -0.501288 -0.865281
vn -0.000000 -0.501288 -0.865281
vn -0.000000 -0.501288 -0.865281
vn -0.000000 -0.501288 -0.865281
vn -0.508599 -0.501288 -0.700027
vn -0.508599 -0.501288 -0.700027
vn -0.508599 -0.501288 -0.700027
vn -0.508599 -0.501288 -0.700027
vn -0.822931 -0.501288 -0.267386
vn -0.822931 -0.501288 -0.267386
vn -0.822931 -0.501288 -0.267386
vn -0.822931 -0.501288 -0.267386
vn -0.822931 -0.501288 0.267386
vn -0.822931 -0.501288 0.267386
vn -0.822931 -0.501288 0.267386
vn -0.822931 -0.501288 0.267386
vn -0.508599 -0.501288 0.700027
vn -0.508599 -0.501288 0.700027
vn -0.508599 -0.501288 0.700027
vn -0.508599 -0.501288 0.700027
vn 0.000000 -0.501288 0.865281
vn 0.000000 -0.501288 0.865281
vn 0.000000 -0.501288 0.865281
vn 0.000000 -0.501288 0.865281
vn 0.508599 -0.501288 0.700027
vn 0.508599 -0.501288 0.700027
vn 0.508599 -0.501288 0.700027
vn 0.508599 -0.501288 0.700027
vn 0.822931 -0.501288 0.267386
vn 0.822931 -0.501288 0.267386
vn 0.822931 -0.501288 0.267386
vn 0.822931 -0.501288 0.267386
vn 0.822931 -0.501288 -0.267386
vn 0.822931 -0.501288 -0.267386
vn 0.822931 -0.501288 -0.267386
vn 0.822931 -0.501288 -0.267386
vn 0.000000 -1.000000 -0.000000
vn 0.000000 -1.000000 0.000000
vn 0.000000 -1.000000 0.000000
vn 0.000000 -1.000000 0.000000
vn 0.000000 -1.000000 0.000000
vn 0.000000 -1.000000 0.000000
vn 0.000000 -1.000000 0.000000
vn 0.000000 -1.000000 0.000000
vn 0.000000 -1.000000 0.000000
vn 0.000000 -1.000000 0.000000
vn 0.000000 -1.000000 0.000000
vn 0.000001 1.000000 0.000000
vn 0.000000 1.000000 -0.000001
vn 0.000000 1.000000 0.000000
vn -0.000000 1.000000 -0.000001
vn -0.000001 1.000000 -0.000001
vn -0.000001 1.000000 -0.000000
vn -0.000001 1.000000 0.000001
vn -0.000000 1.000000 0.000001
vn 0.000000 1.000000 0.000001
vn 0.000001 1.000000 0.000001
vn 0.000001 1.000000 0.000001
vn 0.587785 0.000000 -0.809017
vn 0.587785 0.000000 -0.809017
vn 0.587785 0.000000 -0.809017
vn 0.587785 0.000000 -0.809017
vn -0.000000 0.000000 -1.000000
vn -0.000000 0.000000 -1.000000
vn -0.000000 0.000000 -1.000000
vn -0.000000 0.000000 -1.000000
vn -0.587785 0.000000 -0.809017
vn -0.587785 0.000000 -0.809017
vn -0.587785 0.000000 -0.809017
vn -0.587785 0.000000 -0.809017
vn -0.951057 0.000000 -0.309017
vn -0.951057 0.000000 -0.309017
vn -0.951057 0.000000 -0.309017
vn -0.951057 0.000000 -0.309017
vn -0.951057 0.000000 0.309017
vn -0.951057 0.000000 0.309017
vn -0.951057 0.000000 0.309017
vn -0.951057 0.000000 0.309017
vn -0.587785 0.000000 0.809017
vn -0.587785 0.000000 0.809017
vn -0.587785 0.000000 0.809017
vn -0.587785 0.000000 0.809017
vn 0.000000 0.000000 1.000000
vn 0.000000 0.000000 1.000000
vn 0.000000 0.000000 1.000000
vn 0.000000 0.000000 1.000000
vn 0.587785 0.000000 0.809017
vn 0.587785 0.000000 0.809017
vn 0.587785 0.000000 0.809017
vn 0.587785 0.000000 0.809017
vn 0.951057 0.000000 0.309017
vn 0.951057 0.000000 0.309017
vn 0.951057 0.000000 0.309017
vn 0.951057 0.000000 0.309017
vn 0.951057 0.000000 -0.309017
vn 0.951057 0.000000 -0.309017
vn 0.951057 0.000000 -0.309017
vn 0.951057 0.000000 -0.309017
vn 0.587785 0.000000 -0.809017
vn 0.587785 0.000000 -0.809017
vn 0.587785 0.000000 -0.809017
vn 0.587785 0.000000 -0.809017
vn 0.000000 0.000000 -1.000000
vn 0.000000 0.000000 -1.000000
vn 0.000000 0.000000 -1.000000
vn 0.000000 0.000000 -1.000000
vn -0.587785 -0.000000 -0.809017
vn -0.587785 -0.000000 -0.809017
vn -0.587785 -0.000000 -0.809017
vn -0.587785 -0.000000 -0.809017
vn -0.951057 0.000000 -0.309017
vn -0.951057 0.000000 -0.309017
vn -0.951057 0.000000 -0.309017
vn -0.951057 0.000000 -0.309017
vn -0.951057 0.000000 0.309017
vn -0.951057 0.000000 0.309017
vn -0.951057 0.000000 0.309017
vn -0.951057 0.000000 0.309017
vn -0.587785 0.000000 0.809017
vn -0.587785 0.000000 0.809017
vn -0.587785 0.000000 0.809017
vn -0.587785 0.000000 0.809017
vn 0.000000 -0.000000 1.000000
vn 0.000000 -0.000000 1.000000
vn 0.000000 -0.000000 1.000000
vn 0.000000 -0.000000 1.000000
vn 0.587785 -0.000000 0.809017
vn 0.587785 -0.000000 0.809017
vn 0.587785 -0.000000 0.809017
vn 0.587785 -0.000000 0.809017
vn 0.951057 0.000000 0.309017
vn 0.951057 0.000000 0.309017
vn 0.951057 0.000000 0.309017
vn 0.951057 0.000000 0.309017
vn 0.951057 0.000000 -0.309017
vn 0.951057 0.000000 -0.309017
vn 0.951057 0.000000 -0.309017
vn 0.951057 0.000000 -0.309017
vn 0.587785 0.000000 -0.809017
vn 0.587785 0.000000 -0.809017
vn 0.587785 0.000000 -0.809017
vn 0.587785 0.000000 -0.809017
vn 0.000000 0.000000 -1.000000
vn 0.000000 0.000000 -1.000000
vn 0.000000 0.000000 -1.000000
vn 0.000000 0.000000 -1.000000
vn -0.587785 0.000000 -0.809017
vn -0.587785 0.000000 -0.809017
vn -0.587785 0.000000 -0.809017
vn -0.587785 0.000000 -0.809017
vn -0.951057 0.000000 -0.309017
vn -0.951057 0.000000 -0.309017
vn -0.951057 0.000000 -0.309017
vn -0.951057 0.000000 -0.309017
vn -0.951057 0.000000 0.309017
vn -0.951057 0.000000 0.309017
vn -0.951057 0.000000 0.309017
vn -0.951057 0.000000 0.309017
vn -0.587785 0.000000 0.809017
vn -0.587785 0.000000 0.809017
vn -0.587785 0.000000 0.809017
vn -0.587785 0.000000 0.809017
vn -0.000000 -0.000000 1.000000
vn -0.000000 -0.000000 1.000000
vn -0.000000 -0.000000 1.000000
vn -0.000000 -0.000000 1.000000
vn 0.587785 -0.000000 0.809017
vn 0.587785 -0.000000 0.809017
vn 0.587785 -0.000000 0.809017
vn 0.587785 -0.000000 0.809017
vn 0.951056 0.000000 0.309017
vn 0.951056 0.000000 0.309017
vn 0.951056 0.000000 0.309017
vn 0.951056 0.000000 0.309017
vn 0.951057 0.000000 -0.309017
vn 0.951057 0.000000 -0.309017
vn 0.951057 0.000000 -0.309017
vn 0.951057 0.000000 -0.309017
vn 0.506829 0.506451 -0.697590
vn 0.506829 0.506451 -0.697590
vn 0.506829 0.506451 -0.697590
vn 0.506829 0.506451 -0.697590
vn 0.000001 0.506451 -0.862269
vn 0.000001 0.506451 -0.862269
vn 0.000001 0.506451 -0.862269
vn 0.000001 0.506451 -0.862269
vn -0.506829 0.506451 -0.697590
vn -0.506829 0.506451 -0.697590
vn -0.506829 0.506451 -0.697590
vn -0.506829 0.506451 -0.697590
vn -0.820066 0.506451 -0.266456
vn -0.820066 0.506451 -0.266456
vn -0.820066 0.506451 -0.266456
vn -0.820066 0.506451 -0.266456
vn -0.820066 0.506451 0.266456
vn -0.820066 0.506451 0.266456
vn -0.820066 0.506451 0.266456
vn -0.820066 0.506451 0.266456
vn -0.506829 0.506451 0.697590
vn -0.506829 0.506451 0.697590
vn -0.506829 0.506451 0.697590
vn -0.506829 0.506451 0.697590
vn -0.000000 0.506451 0.862269
vn -0.000000 0.506451 0.862269
vn -0.000000 0.506451 0.862269
vn -0.000000 0.506451 0.862269
vn 0.506829 0.506451 0.697590
vn 0.506829 0.506451 0.697590
vn 0.506829 0.506451 0.697590
vn 0.506829 0.506451 0.697590
vn 0.820066 0.506451 0.266456
vn 0.820066 0.506451 0.266456
vn 0.820066 0.506451 0.266456
vn 0.820066 0.506451 0.266456
vn 0.820066 0.506451 -0.266455
vn 0.820066 0.506451 -0.266455
vn 0.820066 0.506451 -0.266455
vn 0.820066 0.506451 -0.266455
vn 0.000000 -1.000000 -0.000000
vn 0.000000 -1.000000 0.000000
vn 0.000000 -1.000000 0.000000
vn 0.000000 -1.000000 -0.000000
vn -0.000001 1.000000 0.000003
vn -0.000002 1.000000 0.000002
vn -0.000002 1.000000 0.000002
vn -0.000001 1.000000 0.000003
vn 0.000000 -1.000000 0.000000
vn 0.000000 -1.000000 -0.000000
vn 0.000001 1.000000 0.000004
vn 0.000001 1.000000 0.000004
vn 0.000000 -1.000000 -0.000000
vn 0.000000 -1.000000 -0.000000
vn 0.000002 1.000000 0.000002
vn 0.000002 1.000000 0.000002
vn 0.000000 -1.000000 -0.000000
vn 0.000000 -1.000000 -0.000000
vn 0.000003 1.000000 0.000000
vn 0.000003 1.000000 -0.000000
vn 0.000000 -1.000000 -0.000000
vn 0.000000 -1.000000 -0.000000
vn 0.000002 1.000000 -0.000001
vn 0.000002 1.000000 -0.000001
vn 0.000000 -1.000000 -0.000001
vn 0.000000 -1.000000 -0.000001
vn 0.000001 1.000000 -0.000002
vn 0.000001 1.000000 -0.000002
vn 0.000000 -1.000000 -0.000000
vn 0.000000 -1.000000 -0.000000
vn -0.000001 1.000000 -0.000003
vn -0.000001 1.000000 -0.000003
vn 0.000000 -1.000000 0.000000
vn 0.000000 -1.000000 0.000000
vn -0.000002 1.000000 -0.000002
vn -0.000002 1.000000 -0.000002
vn 0.000000 -1.000000 0.000000
vn 0.000000 -1.000000 0.000000
vn -0.000003 1.000000 0.000000
vn -0.000003 1.000000 0.000000
vn 0.000000 -1.000000 0.000000
vn 0.000000 -1.000000 0.000000
vn 0.000000 -1.000000 0.000000
vn 0.000000 -1.000000 0.000000
vn 0.000000 1.000000 -0.000001
vn 0.000000 1.000000 0.000000
vn 0.000000 1.000000 -0.000000
vn 0.000000 1.000000 -0.000001
vn 0.000000 -1.000000 -0.000001
vn 0.000000 -1.000000 -0.000001
vn 0.000000 1.000000 0.000000
vn 0.000000 1.000000 0.000000
vn 0.000000 -1.000000 -0.000001
vn 0.000000 -1.000000 -0.000001
vn 0.000000 1.000000 0.000002
vn 0.000000 1.000000 0.000002
vn 0.000000 -1.000000 -0.000000
vn 0.000000 -1.000000 -0.000000
vn 0.000000 1.000000 0.000000
vn 0.000000 1.000000 0.000000
vn 0.000000 -1.000000 -0.000001
vn 0.000000 -1.000000 -0.000001
vn 0.000000 1.000000 0.000002
vn 0.000000 1.000000 0.000002
vn 0.000000 -1.000000 -0.000001
vn 0.000000 -1.000000 -0.000001
vn 0.000000 1.000000 0.000002
vn 0.000000 1.000000 0.000002
vn 0.000000 -1.000000 -0.000001
vn 0.000000 -1.000000 -0.000001
vn 0.000000 1.000000 0.000000
vn 0.000000 1.000000 0.000000
vn 0.000000 -1.000000 -0.000001
vn 0.000000 -1.000000 -0.000001
vn 0.000000 1.000000 -0.000000
vn 0.000000 1.000000 -0.000000
vn 0.000000 -1.000000 -0.000000
vn 0.000000 -1.000000 -0.000000
vn 0.000000 1.000000 0.000000
vn 0.000000 1.000000 0.000000
vn 0.000000 1.000000 0.000001
vn 0.000000 1.000000 0.000000
vn 0.000000 1.000000 0.000000
vn 0.000000 1.000000 0.000001
vn 0.000000 1.000000 0.000000
vn 0.000000 1.000000 0.000000
vn 0.000000 1.000000 0.000000
vn 0.000000 1.000000 0.000000
vn 0.000000 1.000000 0.000000
vn 0.000000 1.000000 0.000000
vn 0.000000 1.000000 -0.000001
vn 0.000000 1.000000 -0.000001
vn 0.000000 1.000000 -0.000002
vn 0.000000 1.000000 -0.000002
vn 0.000000 1.000000 -0.000001
vn 0.000000 1.000000 -0.000001
vn 0.000000 1.000000 -0.000000
vn 0.000000 1.000000 -0.000000
vn 0.000000 1.000000 0.000000
vn 0.000000 1.000000 0.000000
vn -0.587785 -0.000000 0.809017
vn -0.587785 -0.000000 0.809017
vn -0.587785 -0.000000 0.809017
vn -0.587785 -0.000000 0.809017
vn -0.000001 -0.000000 1.000000
vn -0.000001 -0.000000 1.000000
vn -0.000001 -0.000000 1.000000
vn -0.000001 -0.000000 1.000000
vn 0.587786 0.000000 0.809017
vn 0.587786 0.000000 0.809017
vn 0.587786 0.000000 0.809017
vn 0.587786 0.000000 0.809017
vn 0.951057 0.000001 0.309017
vn 0.951057 0.000001 0.309017
vn 0.951057 0.000001 0.309017
vn 0.951057 0.000001 0.309017
vn 0.951057 -0.000000 -0.309017
vn 0.951057 -0.000000 -0.309017
vn 0.951057 -0.000000 -0.309017
vn 0.951057 -0.000000 -0.309017
vn 0.587786 0.000000 -0.809017
vn 0.587786 0.000000 -0.809017
vn 0.587786 0.000000 -0.809017
vn 0.587786 0.000000 -0.809017
vn 0.000000 0.000000 -1.000000
vn 0.000000 0.000000 -1.000000
vn 0.000000 0.000000 -1.000000
vn 0.000000 0.000000 -1.000000
vn -0.587786 0.000000 -0.809017
vn -0.587786 0.000000 -0.809017
vn -0.587786 0.000000 -0.809017
vn -0.587786 0.000000 -0.809017
vn -0.951057 -0.000000 -0.309017
vn -0.951057 -0.000000 -0.309017
vn -0.951057 -0.000000 -0.309017
vn -0.951057 -0.000000 -0.309017
vn -0.951057 0.000001 0.309017
vn -0.951057 0.000001 0.309017
vn -0.951057 0.000001 0.309017
vn -0.951057 0.000001 0.309017
s off
g pCylinder1
usemtl initialShadingGroup
f 1/1/1 2/2/2 12/192/3 11/181/4
f 2/2/5 3/5/6 13/187/7 12/188/8
f 3/5/9 4/7/10 14/169/11 13/187/12
f 4/7/13 5/9/14 15/186/15 14/168/16
f 5/9/17 6/11/18 16/191/19 15/186/20
f 6/11/21 7/13/22 17/184/23 16/185/24
f 7/13/25 8/15/26 18/190/27 17/184/28
f 8/15/29 9/17/30 19/182/31 18/183/32
f 9/17/33 10/19/34 20/189/35 19/182/36
f 10/19/37 1/1/38 11/181/39 20/180/40
s 1
f 2/2/41 1/1/42 21/21/43
f 3/5/44 2/2/41 21/21/43
f 4/7/45 3/5/44 21/21/43
f 5/9/46 4/7/45 21/21/43
f 6/11/47 5/9/46 21/21/43
f 7/13/48 6/11/47 21/21/43
f 8/15/49 7/13/48 21/21/43
f 9/17/50 8/15/49 21/21/43
f 10/19/51 9/17/50 21/21/43
f 1/1/42 10/19/51 21/21/43
s 2
f 112/22/52 113/132/53 114/24/54
f 113/132/53 115/131/55 114/24/54
f 115/131/55 116/130/56 114/24/54
f 116/154/56 117/129/57 114/24/54
f 117/129/57 118/128/58 114/24/54
f 118/128/58 119/127/59 114/24/54
f 119/127/59 120/126/60 114/24/54
f 120/126/60 121/125/61 114/24/54
f 121/125/61 122/123/62 114/24/54
f 122/123/62 112/22/52 114/24/54
s off
f 62/33/63 63/34/64 64/35/65 65/36/66
f 63/34/67 66/37/68 67/38/69 64/35/70
f 66/37/71 68/163/72 69/164/73 67/38/74
f 68/39/75 70/41/76 71/42/77 69/40/78
f 70/41/79 72/43/80 73/44/81 71/42/82
f 72/43/83 74/45/84 75/46/85 73/44/86
f 74/45/87 76/47/88 77/48/89 75/46/90
f 76/47/91 78/49/92 79/50/93 77/48/94
f 78/49/95 80/51/96 81/52/97 79/50/98
f 80/51/99 62/33/100 65/36/101 81/52/102
f 22/172/103 23/179/104 33/152/105 32/144/106
f 23/179/107 24/178/108 34/151/109 33/152/110
f 24/178/111 25/165/112 35/161/113 34/151/114
f 25/166/115 26/177/116 36/149/117 35/150/118
f 26/177/119 27/176/120 37/148/121 36/149/122
f 27/176/123 28/175/124 38/147/125 37/148/126
f 28/175/127 29/174/128 39/146/129 38/147/130
f 29/174/131 30/173/132 40/145/133 39/146/134
f 30/173/135 31/171/136 41/143/137 40/145/138
f 31/171/139 22/172/140 32/144/141 41/143/142
f 82/73/143 83/74/144 84/75/145 85/76/146
f 83/74/147 86/77/148 87/78/149 84/75/150
f 86/77/151 88/157/152 89/158/153 87/78/154
f 88/79/155 90/81/156 91/82/157 89/80/158
f 90/81/159 92/83/160 93/84/161 91/82/162
f 92/83/163 94/85/164 95/86/165 93/84/166
f 94/85/167 96/87/168 97/88/169 95/86/170
f 96/87/171 98/89/172 99/90/173 97/88/174
f 98/89/175 100/91/176 101/92/177 99/90/178
f 100/91/179 82/73/180 85/76/181 101/92/182
f 42/134/183 43/142/184 53/95/185 52/96/186
f 43/142/187 44/141/188 54/98/189 53/95/190
f 44/141/191 45/140/192 55/156/193 54/98/194
f 45/159/195 46/139/196 56/102/197 55/100/198
f 46/139/199 47/138/200 57/104/201 56/102/202
f 47/138/203 48/137/204 58/106/205 57/104/206
f 48/137/207 49/136/208 59/108/209 58/106/210
f 49/136/211 50/135/212 60/110/213 59/108/214
f 50/135/215 51/133/216 61/112/217 60/110/218
f 51/133/219 42/134/220 52/96/221 61/112/222
s 3
f 11/4/223 12/3/224 63/34/225 62/33/226
s 4
f 23/54/227 22/53/228 65/36/229 64/35/230
s 3
f 12/3/224 13/6/231 66/37/232 63/34/225
s 4
f 24/57/233 23/54/227 64/35/230 67/38/234
s 3
f 13/6/231 14/170/235 68/163/236 66/37/232
s 4
f 25/59/237 24/57/233 67/38/234 69/164/238
s 3
f 14/8/235 15/10/239 70/41/240 68/39/236
s 4
f 26/61/241 25/167/237 69/40/238 71/42/242
s 3
f 15/10/239 16/12/243 72/43/244 70/41/240
s 4
f 27/63/245 26/61/241 71/42/242 73/44/246
s 3
f 16/12/243 17/14/247 74/45/248 72/43/244
s 4
f 28/65/249 27/63/245 73/44/246 75/46/250
s 3
f 17/14/247 18/16/251 76/47/252 74/45/248
s 4
f 29/67/253 28/65/249 75/46/250 77/48/254
s 3
f 18/16/251 19/18/255 78/49/256 76/47/252
s 4
f 30/69/257 29/67/253 77/48/254 79/50/258
s 3
f 19/18/255 20/20/259 80/51/260 78/49/256
s 4
f 31/71/261 30/69/257 79/50/258 81/52/262
s 3
f 20/20/259 11/4/223 62/33/226 80/51/260
s 4
f 22/53/228 31/71/261 81/52/262 65/36/229
s 5
f 32/56/263 33/55/264 83/74/265 82/73/266
s 6
f 43/94/267 42/93/268 85/76/269 84/75/270
s 5
f 33/55/264 34/58/271 86/77/272 83/74/265
s 6
f 44/97/273 43/94/267 84/75/270 87/78/274
s 5
f 34/58/271 35/162/275 88/157/276 86/77/272
s 6
f 45/99/277 44/97/273 87/78/274 89/158/278
s 5
f 35/60/275 36/62/279 90/81/280 88/79/276
s 6
f 46/101/281 45/160/277 89/80/278 91/82/282
s 5
f 36/62/279 37/64/283 92/83/284 90/81/280
s 6
f 47/103/285 46/101/281 91/82/282 93/84/286
s 5
f 37/64/283 38/66/287 94/85/288 92/83/284
s 6
f 48/105/289 47/103/285 93/84/286 95/86/290
s 5
f 38/66/287 39/68/291 96/87/292 94/85/288
s 6
f 49/107/293 48/105/289 95/86/290 97/88/294
s 5
f 39/68/291 40/70/295 98/89/296 96/87/292
s 6
f 50/109/297 49/107/293 97/88/294 99/90/298
s 5
f 40/70/295 41/72/299 100/91/300 98/89/296
s 6
f 51/111/301 50/109/297 99/90/298 101/92/302
s 5
f 41/72/299 32/56/263 82/73/266 100/91/300
s 6
f 42/93/268 51/111/301 101/92/302 85/76/269
s 7
f 52/96/303 53/95/304 103/113/305 102/114/306
f 53/95/304 54/98/307 104/115/308 103/113/305
f 54/98/307 55/156/309 105/155/310 104/115/308
f 55/100/309 56/102/311 106/117/312 105/116/310
f 56/102/311 57/104/313 107/118/314 106/117/312
f 57/104/313 58/106/315 108/119/316 107/118/314
f 58/106/315 59/108/317 109/120/318 108/119/316
f 59/108/317 60/110/319 110/121/320 109/120/318
f 60/110/319 61/112/321 111/122/322 110/121/320
f 61/112/321 52/96/303 102/114/306 111/122/322
s off
f 102/114/323 103/113/324 113/23/325 112/124/326
f 103/113/327 104/115/328 115/25/329 113/23/330
f 104/115/331 105/155/332 116/153/333 115/25/334
f 105/116/335 106/117/336 117/27/337 116/26/338
f 106/117/339 107/118/340 118/28/341 117/27/342
f 107/118/343 108/119/344 119/29/345 118/28/346
f 108/119/347 109/120/348 120/30/349 119/29/350
f 109/120/351 110/121/352 121/31/353 120/30/354
f 110/121/355 111/122/356 122/32/357 121/31/358
f 111/122/359 102/114/360 112/124/361 122/32/362
