# This file uses centimeters as units for non-parametric coordinates.

mtllib Lantern_LP_OBJ.mtl
g default
v -0.677962 2.504266 0.677962
v 0.677962 2.504266 0.677962
v -0.677962 2.504266 -0.677962
v 0.677962 2.504266 -0.677962
v 1.072207 0.479707 -0.868587
v 1.072207 0.479707 0.868587
v 0.716190 2.307953 -0.512569
v 0.716190 2.307953 0.512569
v -0.868587 0.479707 1.072207
v 0.868587 0.479707 1.072207
v 0.512569 2.307953 0.716190
v -0.512569 2.307953 0.716190
v -0.512569 2.307953 -0.716190
v 0.512569 2.307953 -0.716190
v 0.868587 0.479707 -1.072207
v -0.868587 0.479707 -1.072207
v -1.072207 0.479707 -0.868587
v -1.072207 0.479707 0.868587
v -0.716190 2.307953 0.512569
v -0.716190 2.307953 -0.512569
v -0.577962 2.589881 0.577962
v 0.577962 2.589881 0.577962
v 0.577962 2.589881 -0.577962
v -0.577962 2.589881 -0.577962
v -0.179245 2.589881 0.277962
v 0.179245 2.589881 0.277962
v 0.179245 2.589881 -0.277962
v -0.179245 2.589881 -0.277962
v -0.179245 2.737598 0.277962
v 0.179245 2.737598 0.277962
v 0.179245 2.737598 -0.277962
v -0.179245 2.737598 -0.277962
v -0.888371 0.154794 0.888371
v -1.028694 0.222824 1.028694
v -1.070262 0.373043 1.070262
v 0.888371 0.154794 0.888371
v 1.028694 0.222824 1.028694
v 1.070262 0.373043 1.070262
v -0.888371 0.154794 -0.888371
v -1.028694 0.222824 -1.028694
v -1.070262 0.373043 -1.070262
v 0.888371 0.154794 -0.888371
v 1.028694 0.222824 -1.028694
v 1.070262 0.373043 -1.070262
v -0.725194 0.616619 0.895199
v 0.725194 0.616619 0.895199
v 0.427950 2.143044 0.597956
v -0.427950 2.143044 0.597956
v -0.427950 2.143044 -0.597956
v 0.427950 2.143044 -0.597956
v 0.725194 0.616619 -0.895199
v -0.725194 0.616619 -0.895199
v 0.895199 0.616619 -0.725194
v 0.895199 0.616619 0.725194
v 0.597956 2.143044 -0.427950
v 0.597956 2.143044 0.427950
v -0.895199 0.616619 -0.725194
v -0.895199 0.616619 0.725194
v -0.597956 2.143044 0.427950
v -0.597956 2.143044 -0.427950
v 0.000000 3.127541 -0.154425
v 0.000000 2.973116 -0.218390
v 0.000000 2.818691 -0.154425
v 0.000000 2.754725 0.000000
v 0.000000 2.818691 0.154425
v 0.000000 2.973116 0.218390
v 0.000000 3.127541 0.154425
v 0.000000 3.191506 0.000000
v -0.047697 3.143783 -0.170667
v -0.047697 2.973116 -0.241360
v -0.047697 2.802449 -0.170667
v -0.047697 2.731756 0.000000
v -0.047697 2.802449 0.170667
v -0.047697 2.973116 0.241360
v -0.047697 3.143783 0.170667
v -0.047697 3.214475 0.000000
v -0.059477 3.180278 -0.207162
v -0.059477 2.973116 -0.292971
v -0.059477 2.765954 -0.207162
v -0.059477 2.680144 0.000000
v -0.059477 2.765954 0.207162
v -0.059477 2.973116 0.292971
v -0.059477 3.180278 0.207162
v -0.059477 3.266088 0.000000
v -0.026470 3.209545 -0.236429
v -0.026470 2.973116 -0.334361
v -0.026470 2.736687 -0.236429
v -0.026470 2.638755 0.000000
v -0.026470 2.736687 0.236429
v -0.026470 2.973116 0.334361
v -0.026470 3.209545 0.236429
v -0.026470 3.307477 0.000000
v 0.026470 3.209545 -0.236429
v 0.026470 2.973116 -0.334361
v 0.026470 2.736687 -0.236429
v 0.026470 2.638755 0.000000
v 0.026470 2.736687 0.236429
v 0.026470 2.973116 0.334361
v 0.026470 3.209545 0.236429
v 0.026470 3.307477 0.000000
v 0.059477 3.180278 -0.207162
v 0.059477 2.973116 -0.292971
v 0.059477 2.765954 -0.207162
v 0.059477 2.680144 0.000000
v 0.059477 2.765954 0.207162
v 0.059477 2.973116 0.292971
v 0.059477 3.180278 0.207162
v 0.059477 3.266088 0.000000
v 0.047697 3.143783 -0.170667
v 0.047697 2.973116 -0.241360
v 0.047697 2.802449 -0.170667
v 0.047697 2.731756 0.000000
v 0.047697 2.802449 0.170667
v 0.047697 2.973116 0.241360
v 0.047697 3.143783 0.170667
v 0.047697 3.214475 0.000000
vt 0.803159 0.268136
vt 0.975820 0.242524
vt 0.967895 0.432900
vt 0.866004 0.448014
vt 0.394233 0.030797
vt 0.435077 0.016901
vt 0.456627 0.080239
vt 0.415783 0.094136
vt 0.510672 0.261690
vt 0.438615 0.188084
vt 0.547327 0.031600
vt 0.669433 0.156332
vt 0.795194 0.669612
vt 0.969669 0.674745
vt 0.928408 0.860765
vt 0.825447 0.857736
vt 0.891033 0.030803
vt 0.949377 0.195314
vt 0.761032 0.224156
vt 0.726602 0.127074
vt 0.457230 0.504367
vt 0.296154 0.542771
vt 0.805939 0.875610
vt 0.937869 0.885474
vt 0.334603 0.703838
vt 0.849942 0.469039
vt 0.981552 0.455562
vt 0.495681 0.665435
vt 0.412164 0.187426
vt 0.500345 0.286051
vt 0.702880 0.115356
vt 0.741420 0.241916
vt 0.313873 0.553435
vt 0.345262 0.686122
vt 0.446571 0.522083
vt 0.477962 0.654771
vt 0.451907 0.011175
vt 0.388507 0.013968
vt 0.462354 0.097069
vt 0.398953 0.099862
vt 0.791834 0.619895
vt 0.411773 0.208204
vt 0.203521 0.257593
vt 0.154167 0.049454
vt 0.031458 0.558296
vt 0.700767 0.398910
vt 0.996250 0.656954
vt 0.778736 0.642185
vt 0.350000 0.968528
vt 0.998861 0.220339
vt 0.782137 0.244028
vt 0.554500 0.000429
vt 0.601030 0.909033
vt 0.700920 0.161958
vt 0.975581 0.213657
vt 0.910647 0.005537
vt 0.071654 0.808761
vt 0.777475 0.640694
vt 0.191396 0.279762
vt 0.432568 0.222572
vt 0.481518 0.693562
vt 0.700182 0.125639
vt 0.359902 0.722568
vt 0.749994 0.248202
vt 0.370786 0.950449
vt 0.980528 0.202577
vt 0.574331 0.902221
vt 0.899823 0.000049
vt 0.310319 0.514645
vt 0.814550 0.881846
vt 0.431928 0.485637
vt 0.946831 0.879756
vt 0.217535 0.305988
vt 0.769704 0.650289
vt 0.421009 0.257755
vt 0.987710 0.648333
vt 0.742287 0.629136
vt 0.700750 0.149824
vt 0.693968 0.425612
vt 0.542373 0.000000
vt 0.485359 0.518518
vt 0.414040 0.197890
vt 0.514403 0.640126
vt 0.510767 0.288149
vt 0.306475 0.689687
vt 0.859514 0.473664
vt 0.277431 0.568080
vt 0.989369 0.448357
vt 0.049547 0.579073
vt 0.988939 0.213353
vt 0.097868 0.782596
vt 0.774670 0.253593
vt 0.760375 0.649913
vt 0.091069 0.809298
vt 0.190844 0.299177
vt 0.441786 0.239676
vt 0.720182 0.399447
vt 0.742356 0.411560
vt 0.588361 0.950616
vt 0.362345 0.000063
vt 0.014359 0.567515
vt 0.000000 0.588314
vt 0.380004 1.000000
vt 0.049480 0.796649
vt 0.359211 0.985632
vt 0.600484 0.928447
vt 0.432688 0.617156
vt 0.421509 0.110966
vt 0.422953 0.575996
vt 0.473457 0.074513
vt 0.359146 0.591050
vt 0.429351 0.000071
vt 0.368882 0.632210
vt 0.377403 0.036524
vt 0.064845 0.034319
vt 0.082178 0.051812
vt 0.077539 0.056312
vt 0.060152 0.038723
vt 0.047926 0.017156
vt 0.042849 0.021159
vt 0.034150 0.000048
vt 0.028041 0.002958
vt 0.150839 0.122440
vt 0.167416 0.137352
vt 0.164130 0.143418
vt 0.146578 0.127382
vt 0.134001 0.104914
vt 0.129454 0.109501
vt 0.116826 0.087152
vt 0.112214 0.091684
vt 0.099523 0.069446
vt 0.094895 0.073968
vt 0.073138 0.060349
vt 0.055725 0.042664
vt 0.038113 0.024702
vt 0.021191 0.004696
vt 0.161817 0.150368
vt 0.142559 0.131846
vt 0.125155 0.113587
vt 0.107837 0.095745
vt 0.090499 0.078027
vt 0.068656 0.064613
vt 0.051248 0.046850
vt 0.033532 0.028588
vt 0.014449 0.007387
vt 0.158457 0.156951
vt 0.138386 0.136235
vt 0.120749 0.117843
vt 0.103370 0.100020
vt 0.086016 0.082310
vt 0.064028 0.069262
vt 0.046651 0.051443
vt 0.029027 0.033047
vt 0.008968 0.012326
vt 0.152981 0.161891
vt 0.133883 0.140693
vt 0.116155 0.122434
vt 0.098742 0.104668
vt 0.081380 0.086971
vt 0.059564 0.073543
vt 0.042248 0.055704
vt 0.024853 0.037439
vt 0.005603 0.018911
vt 0.146242 0.164583
vt 0.129309 0.144581
vt 0.111683 0.126622
vt 0.094266 0.108937
vt 0.076903 0.091259
vt 0.055194 0.077612
vt 0.037951 0.059795
vt 0.020833 0.041906
vt 0.003287 0.025863
vt 0.139398 0.166324
vt 0.124579 0.148129
vt 0.107266 0.130569
vt 0.089874 0.112982
vt 0.072516 0.095327
vt 0.050596 0.082158
vt 0.033412 0.064391
vt 0.016574 0.046851
vt 0.000000 0.031931
vt 0.133292 0.169239
vt 0.119511 0.152139
vt 0.102585 0.134984
vt 0.085250 0.117496
vt 0.067902 0.099864
vn 0.000000 0.191141 0.981563
vn 0.000000 0.191141 0.981563
vn 0.000000 0.191141 0.981563
vn 0.000000 0.191141 0.981563
vn 0.000000 1.000000 0.000000
vn 0.000000 1.000000 0.000000
vn 0.000000 1.000000 0.000000
vn 0.000000 1.000000 0.000000
vn 0.000000 0.191141 -0.981563
vn 0.000000 0.191141 -0.981563
vn 0.000000 0.191141 -0.981563
vn 0.000000 0.191141 -0.981563
vn 0.981563 0.191141 0.000000
vn 0.981563 0.191141 0.000000
vn 0.981563 0.191141 0.000000
vn 0.981563 0.191141 0.000000
vn -0.981563 0.191141 0.000000
vn -0.981563 0.191141 0.000000
vn -0.981563 0.191141 0.000000
vn -0.981563 0.191141 0.000000
vn 0.980255 0.194330 -0.036566
vn 0.980255 0.194330 0.036566
vn 0.980246 0.194342 0.036722
vn 0.980246 0.194343 -0.036722
vn 0.036566 0.194330 0.980255
vn -0.036566 0.194330 0.980255
vn -0.036721 0.194342 0.980246
vn 0.036721 0.194342 0.980246
vn -0.036566 0.194330 -0.980255
vn 0.036566 0.194330 -0.980255
vn 0.036721 0.194342 -0.980246
vn -0.036721 0.194342 -0.980246
vn -0.980255 0.194330 0.036566
vn -0.980255 0.194330 -0.036566
vn -0.980246 0.194342 -0.036722
vn -0.980246 0.194343 0.036722
vn 0.000000 0.759629 0.650357
vn 0.000000 0.759629 0.650357
vn 0.000000 0.759629 0.650357
vn 0.000000 0.759629 0.650357
vn 0.650357 0.759629 0.000000
vn 0.650357 0.759629 0.000000
vn 0.650357 0.759629 0.000000
vn 0.650357 0.759629 0.000000
vn 0.000000 0.759629 -0.650357
vn 0.000000 0.759629 -0.650357
vn 0.000000 0.759629 -0.650357
vn 0.000000 0.759629 -0.650357
vn -0.650357 0.759629 0.000000
vn -0.650357 0.759629 0.000000
vn -0.650357 0.759629 0.000000
vn -0.650357 0.759629 0.000000
vn 0.000000 1.000000 0.000000
vn 0.000000 1.000000 0.000000
vn 0.000000 1.000000 0.000000
vn 0.000000 1.000000 0.000000
vn 0.000000 1.000000 0.000000
vn 0.000000 1.000000 0.000000
vn 0.000000 1.000000 0.000000
vn 0.000000 1.000000 0.000000
vn 0.000000 0.000000 1.000000
vn 0.000000 0.000000 1.000000
vn 0.000000 0.000000 1.000000
vn 0.000000 0.000000 1.000000
vn 1.000000 0.000000 0.000000
vn 1.000000 0.000000 0.000000
vn 1.000000 0.000000 0.000000
vn 1.000000 0.000000 0.000000
vn 0.000000 0.000000 -1.000000
vn 0.000000 0.000000 -1.000000
vn 0.000000 0.000000 -1.000000
vn 0.000000 0.000000 -1.000000
vn -1.000000 0.000000 0.000000
vn -1.000000 0.000000 0.000000
vn -1.000000 0.000000 0.000000
vn -1.000000 0.000000 0.000000
vn -0.048356 -0.997659 -0.048356
vn 0.048356 -0.997659 -0.048356
vn 0.048356 -0.997659 0.048356
vn -0.048356 -0.997659 0.048356
vn 0.998264 -0.053605 0.024408
vn 0.998264 -0.053605 -0.024408
vn 0.992843 0.113724 -0.036472
vn 0.992843 0.113724 0.036472
vn -0.024408 -0.053605 0.998264
vn 0.024408 -0.053605 0.998264
vn 0.036472 0.113725 0.992843
vn -0.036472 0.113725 0.992843
vn 0.024408 -0.053605 -0.998264
vn 0.036472 0.113725 -0.992843
vn -0.024408 -0.053605 -0.998264
vn -0.036472 0.113725 -0.992843
vn -0.998264 -0.053605 -0.024408
vn -0.998264 -0.053605 0.024408
vn -0.992843 0.113724 0.036472
vn -0.992843 0.113724 -0.036472
vn -0.436241 -0.899830 0.000000
vn -0.436241 -0.899830 0.000000
vn -0.963782 -0.266691 0.000000
vn -0.963782 -0.266691 0.000000
vn 0.000000 -0.266691 0.963782
vn 0.000000 -0.266691 0.963782
vn 0.000000 -0.899830 0.436241
vn 0.000000 -0.899830 0.436241
vn 0.000000 -0.899830 -0.436241
vn 0.000000 -0.899830 -0.436241
vn 0.000000 -0.266691 -0.963782
vn 0.000000 -0.266691 -0.963782
vn 0.963782 -0.266691 0.000000
vn 0.963782 -0.266691 0.000000
vn 0.436241 -0.899830 0.000000
vn 0.436241 -0.899830 0.000000
vn 0.000000 0.790998 0.611819
vn 0.000000 0.790998 0.611819
vn 0.000000 0.790998 0.611819
vn 0.000000 0.790998 0.611819
vn -0.789407 -0.034370 0.612908
vn -0.789407 -0.034370 0.612908
vn -0.789407 -0.034370 0.612908
vn -0.789407 -0.034370 0.612908
vn 0.000000 -0.582679 0.812702
vn 0.000000 -0.582679 0.812702
vn 0.000000 -0.582679 0.812702
vn 0.000000 -0.582679 0.812702
vn 0.789406 -0.034370 0.612908
vn 0.789407 -0.034370 0.612908
vn 0.789407 -0.034370 0.612908
vn 0.789406 -0.034370 0.612908
vn 0.000000 -0.582679 -0.812702
vn 0.000000 -0.582679 -0.812702
vn 0.000000 -0.582679 -0.812702
vn 0.000000 -0.582679 -0.812702
vn -0.789406 -0.034370 -0.612908
vn -0.789407 -0.034370 -0.612908
vn -0.789407 -0.034370 -0.612908
vn -0.789406 -0.034370 -0.612908
vn 0.000000 0.790998 -0.611819
vn 0.000000 0.790998 -0.611819
vn 0.000000 0.790998 -0.611819
vn 0.000000 0.790998 -0.611819
vn 0.789407 -0.034370 -0.612908
vn 0.789407 -0.034370 -0.612908
vn 0.789407 -0.034370 -0.612908
vn 0.789407 -0.034370 -0.612908
vn 0.611819 0.790998 0.000000
vn 0.611819 0.790998 0.000000
vn 0.611819 0.790998 0.000000
vn 0.611819 0.790998 0.000000
vn 0.612908 -0.034370 0.789407
vn 0.612908 -0.034370 0.789407
vn 0.612908 -0.034370 0.789407
vn 0.612908 -0.034370 0.789407
vn 0.812703 -0.582679 0.000000
vn 0.812703 -0.582679 0.000000
vn 0.812703 -0.582679 0.000000
vn 0.812703 -0.582679 0.000000
vn 0.612908 -0.034370 -0.789407
vn 0.612908 -0.034370 -0.789407
vn 0.612908 -0.034370 -0.789407
vn 0.612908 -0.034370 -0.789407
vn -0.611819 0.790998 0.000000
vn -0.611819 0.790998 0.000000
vn -0.611819 0.790998 0.000000
vn -0.611819 0.790998 0.000000
vn -0.612908 -0.034370 -0.789407
vn -0.612908 -0.034370 -0.789407
vn -0.612908 -0.034370 -0.789407
vn -0.612908 -0.034370 -0.789407
vn -0.812703 -0.582679 0.000000
vn -0.812703 -0.582679 0.000000
vn -0.812703 -0.582679 0.000000
vn -0.812703 -0.582679 0.000000
vn -0.612908 -0.034370 0.789407
vn -0.612908 -0.034370 0.789407
vn -0.612908 -0.034370 0.789407
vn -0.612908 -0.034370 0.789407
vn -0.406500 -0.349639 0.844103
vn -0.406500 -0.349639 0.844103
vn -0.406500 -0.349639 0.844103
vn -0.406500 -0.349639 0.844103
vn -0.406499 0.349639 0.844104
vn -0.406499 0.349639 0.844104
vn -0.406499 0.349639 0.844104
vn -0.406499 0.349639 0.844104
vn -0.406495 0.844105 0.349641
vn -0.406495 0.844105 0.349641
vn -0.406495 0.844105 0.349641
vn -0.406495 0.844105 0.349641
vn -0.406495 0.844105 -0.349641
vn -0.406495 0.844105 -0.349641
vn -0.406495 0.844105 -0.349641
vn -0.406495 0.844105 -0.349641
vn -0.406499 0.349639 -0.844104
vn -0.406499 0.349639 -0.844104
vn -0.406499 0.349639 -0.844104
vn -0.406499 0.349639 -0.844104
vn -0.406500 -0.349639 -0.844103
vn -0.406500 -0.349639 -0.844103
vn -0.406500 -0.349639 -0.844103
vn -0.406500 -0.349639 -0.844103
vn -0.406501 -0.844103 -0.349639
vn -0.406501 -0.844103 -0.349639
vn -0.406501 -0.844103 -0.349639
vn -0.406501 -0.844103 -0.349639
vn -0.406501 -0.844103 0.349639
vn -0.406501 -0.844103 0.349639
vn -0.406501 -0.844103 0.349639
vn -0.406501 -0.844103 0.349639
vn -0.970813 -0.091782 0.221582
vn -0.970813 -0.091782 0.221582
vn -0.970813 -0.091782 0.221582
vn -0.970813 -0.091782 0.221582
vn -0.970813 0.091782 0.221582
vn -0.970813 0.091782 0.221582
vn -0.970813 0.091782 0.221582
vn -0.970813 0.091782 0.221582
vn -0.970813 0.221581 0.091782
vn -0.970813 0.221581 0.091782
vn -0.970813 0.221581 0.091782
vn -0.970813 0.221581 0.091782
vn -0.970813 0.221581 -0.091782
vn -0.970813 0.221581 -0.091782
vn -0.970813 0.221581 -0.091782
vn -0.970813 0.221581 -0.091782
vn -0.970813 0.091782 -0.221582
vn -0.970813 0.091782 -0.221582
vn -0.970813 0.091782 -0.221582
vn -0.970813 0.091782 -0.221582
vn -0.970813 -0.091782 -0.221582
vn -0.970813 -0.091782 -0.221582
vn -0.970813 -0.091782 -0.221582
vn -0.970813 -0.091782 -0.221582
vn -0.970813 -0.221581 -0.091782
vn -0.970813 -0.221581 -0.091782
vn -0.970813 -0.221581 -0.091782
vn -0.970813 -0.221581 -0.091782
vn -0.970813 -0.221581 0.091782
vn -0.970813 -0.221581 0.091782
vn -0.970813 -0.221581 0.091782
vn -0.970813 -0.221581 0.091782
vn -0.756994 0.250054 -0.603684
vn -0.756994 0.250054 -0.603684
vn -0.756994 0.250054 -0.603683
vn -0.756994 0.250054 -0.603683
vn -0.756994 -0.250054 -0.603683
vn -0.756994 -0.250054 -0.603683
vn -0.756994 -0.250054 -0.603683
vn -0.756994 -0.250054 -0.603683
vn -0.756995 -0.603682 -0.250053
vn -0.756995 -0.603682 -0.250053
vn -0.756995 -0.603682 -0.250053
vn -0.756995 -0.603682 -0.250053
vn -0.756995 -0.603682 0.250053
vn -0.756995 -0.603682 0.250053
vn -0.756995 -0.603682 0.250053
vn -0.756995 -0.603682 0.250053
vn -0.756994 -0.250054 0.603683
vn -0.756994 -0.250054 0.603683
vn -0.756994 -0.250054 0.603683
vn -0.756994 -0.250054 0.603683
vn -0.756994 0.250054 0.603684
vn -0.756994 0.250054 0.603684
vn -0.756994 0.250054 0.603684
vn -0.756994 0.250054 0.603684
vn -0.756992 0.603685 0.250054
vn -0.756992 0.603685 0.250054
vn -0.756992 0.603685 0.250054
vn -0.756992 0.603685 0.250054
vn -0.756992 0.603685 -0.250054
vn -0.756992 0.603685 -0.250054
vn -0.756992 0.603685 -0.250054
vn -0.756992 0.603685 -0.250054
vn 0.000001 0.382683 -0.923880
vn 0.000001 0.382683 -0.923880
vn 0.000001 0.382683 -0.923880
vn 0.000001 0.382683 -0.923880
vn 0.000001 -0.382683 -0.923880
vn 0.000001 -0.382683 -0.923880
vn 0.000001 -0.382683 -0.923880
vn 0.000001 -0.382683 -0.923880
vn 0.000000 -0.923880 -0.382683
vn 0.000000 -0.923880 -0.382683
vn 0.000000 -0.923880 -0.382683
vn 0.000000 -0.923880 -0.382683
vn 0.000000 -0.923880 0.382683
vn 0.000000 -0.923880 0.382683
vn 0.000000 -0.923880 0.382683
vn 0.000000 -0.923880 0.382683
vn 0.000001 -0.382683 0.923880
vn 0.000001 -0.382683 0.923880
vn 0.000001 -0.382683 0.923880
vn 0.000001 -0.382683 0.923880
vn 0.000001 0.382683 0.923880
vn 0.000001 0.382683 0.923880
vn 0.000001 0.382683 0.923880
vn 0.000001 0.382683 0.923880
vn 0.000000 0.923880 0.382683
vn 0.000000 0.923880 0.382683
vn 0.000000 0.923880 0.382683
vn 0.000000 0.923880 0.382683
vn 0.000000 0.923880 -0.382683
vn 0.000000 0.923880 -0.382683
vn 0.000000 0.923880 -0.382683
vn 0.000000 0.923880 -0.382683
vn 0.756993 0.250054 -0.603684
vn 0.756993 0.250054 -0.603684
vn 0.756993 0.250054 -0.603684
vn 0.756993 0.250054 -0.603684
vn 0.756994 -0.250054 -0.603683
vn 0.756994 -0.250054 -0.603683
vn 0.756994 -0.250054 -0.603683
vn 0.756994 -0.250054 -0.603683
vn 0.756995 -0.603682 -0.250053
vn 0.756995 -0.603682 -0.250053
vn 0.756995 -0.603682 -0.250053
vn 0.756995 -0.603682 -0.250053
vn 0.756995 -0.603682 0.250053
vn 0.756995 -0.603682 0.250053
vn 0.756995 -0.603682 0.250053
vn 0.756995 -0.603682 0.250053
vn 0.756994 -0.250054 0.603683
vn 0.756994 -0.250054 0.603683
vn 0.756994 -0.250054 0.603683
vn 0.756994 -0.250054 0.603683
vn 0.756994 0.250054 0.603684
vn 0.756993 0.250054 0.603684
vn 0.756994 0.250054 0.603684
vn 0.756994 0.250054 0.603684
vn 0.756992 0.603685 0.250054
vn 0.756993 0.603685 0.250054
vn 0.756993 0.603685 0.250054
vn 0.756993 0.603685 0.250054
vn 0.756993 0.603685 -0.250054
vn 0.756992 0.603685 -0.250054
vn 0.756993 0.603685 -0.250054
vn 0.756993 0.603685 -0.250054
vn 0.970813 -0.091782 0.221582
vn 0.970813 -0.091782 0.221582
vn 0.970813 -0.091782 0.221582
vn 0.970813 -0.091782 0.221582
vn 0.970813 0.091782 0.221582
vn 0.970813 0.091782 0.221582
vn 0.970813 0.091782 0.221582
vn 0.970813 0.091782 0.221582
vn 0.970813 0.221581 0.091782
vn 0.970813 0.221581 0.091782
vn 0.970813 0.221581 0.091782
vn 0.970813 0.221581 0.091782
vn 0.970813 0.221581 -0.091782
vn 0.970813 0.221581 -0.091782
vn 0.970813 0.221581 -0.091782
vn 0.970813 0.221581 -0.091782
vn 0.970813 0.091782 -0.221582
vn 0.970813 0.091782 -0.221582
vn 0.970813 0.091782 -0.221582
vn 0.970813 0.091782 -0.221582
vn 0.970813 -0.091782 -0.221582
vn 0.970813 -0.091782 -0.221582
vn 0.970813 -0.091782 -0.221582
vn 0.970813 -0.091782 -0.221582
vn 0.970813 -0.221581 -0.091782
vn 0.970813 -0.221581 -0.091782
vn 0.970813 -0.221581 -0.091782
vn 0.970813 -0.221581 -0.091782
vn 0.970813 -0.221581 0.091782
vn 0.970813 -0.221581 0.091782
vn 0.970813 -0.221581 0.091782
vn 0.970813 -0.221581 0.091782
vn 0.406500 -0.349639 0.844104
vn 0.406500 -0.349639 0.844104
vn 0.406500 -0.349639 0.844104
vn 0.406500 -0.349639 0.844104
vn 0.406499 0.349639 0.844104
vn 0.406499 0.349639 0.844104
vn 0.406499 0.349639 0.844104
vn 0.406499 0.349639 0.844104
vn 0.406495 0.844105 0.349640
vn 0.406495 0.844105 0.349640
vn 0.406495 0.844105 0.349640
vn 0.406495 0.844105 0.349640
vn 0.406495 0.844105 -0.349640
vn 0.406495 0.844105 -0.349640
vn 0.406495 0.844105 -0.349640
vn 0.406495 0.844105 -0.349640
vn 0.406499 0.349639 -0.844104
vn 0.406499 0.349639 -0.844104
vn 0.406499 0.349639 -0.844104
vn 0.406499 0.349639 -0.844104
vn 0.406500 -0.349639 -0.844104
vn 0.406500 -0.349639 -0.844104
vn 0.406500 -0.349639 -0.844104
vn 0.406500 -0.349639 -0.844104
vn 0.406501 -0.844103 -0.349639
vn 0.406501 -0.844103 -0.349639
vn 0.406501 -0.844103 -0.349639
vn 0.406501 -0.844103 -0.349639
vn 0.406501 -0.844103 0.349639
vn 0.406501 -0.844103 0.349639
vn 0.406501 -0.844103 0.349639
vn 0.406501 -0.844103 0.349639
s off
g pCube2
usemtl initialShadingGroup
f 45/1/1 46/2/2 47/3/3 48/4/4
f 29/5/5 30/6/6 31/7/7 32/8/8
f 49/9/9 50/10/10 51/11/11 52/12/12
f 54/13/13 53/14/14 55/15/15 56/16/16
f 57/17/17 58/18/18 59/19/19 60/20/20
s 1
f 4/21/21 2/22/22 8/69/23 7/71/24
s 2
f 2/22/25 1/25/26 12/85/27 11/87/28
s 3
f 3/28/29 4/21/30 14/81/31 13/83/32
s 4
f 1/25/33 3/28/34 20/61/35 19/63/36
s off
f 1/25/37 2/22/38 22/33/39 21/34/40
f 2/22/41 4/21/42 23/35/43 22/33/44
f 4/21/45 3/28/46 24/36/47 23/35/48
f 3/28/49 1/25/50 21/34/51 24/36/52
s 5
f 21/34/53 22/33/54 26/111/55 25/113/56
f 22/33/54 23/35/57 27/109/58 26/111/55
f 23/35/57 24/36/59 28/107/60 27/109/58
f 24/36/59 21/34/53 25/113/56 28/107/60
s off
f 25/38/61 26/112/62 30/6/63 29/5/64
f 26/37/65 27/110/66 31/7/67 30/6/68
f 27/39/69 28/108/70 32/8/71 31/7/72
f 28/40/73 25/114/74 29/5/75 32/8/76
s 6
f 39/100/77 42/42/78 36/43/79 33/44/80
s 1
f 38/95/81 44/96/82 5/75/83 6/73/84
f 44/96/82 4/21/21 7/71/24 5/75/83
f 2/22/22 38/95/81 6/73/84 8/69/23
s 2
f 35/94/85 38/45/86 10/89/87 9/91/88
f 38/45/86 2/22/25 11/87/28 10/89/87
f 1/25/26 35/94/85 9/91/88 12/85/27
s 3
f 4/21/30 44/46/89 15/79/90 14/81/31
f 44/46/89 41/93/91 16/77/92 15/79/90
f 41/93/91 3/28/29 13/83/32 16/77/92
s 4
f 41/53/93 35/49/94 18/65/95 17/67/96
f 35/49/94 1/25/33 19/63/36 18/65/95
f 3/28/34 41/53/93 17/67/96 20/61/35
s 6
f 33/103/80 34/105/97 40/106/98 39/99/77
s 4
f 34/105/99 35/49/94 41/53/93 40/106/100
s 2
f 35/94/85 34/57/101 37/101/102 38/45/86
s 6
f 34/57/103 33/104/80 36/102/79 37/101/104
f 39/41/77 40/58/105 43/97/106 42/98/78
s 3
f 40/58/107 41/93/91 44/46/89 43/97/108
s 1
f 38/95/81 37/59/109 43/60/110 44/96/82
s 6
f 37/59/111 36/43/79 42/42/78 43/60/112
s off
f 9/51/113 10/90/114 46/2/115 45/1/116
f 10/50/117 11/88/118 47/3/119 46/2/120
f 11/27/121 12/86/122 48/4/123 47/3/124
f 12/26/125 9/92/126 45/1/127 48/4/128
f 13/30/129 14/82/130 50/10/131 49/9/132
f 14/29/133 15/80/134 51/11/135 50/10/136
f 15/52/137 16/78/138 52/12/139 51/11/140
f 16/54/141 13/84/142 49/9/143 52/12/144
f 6/48/145 5/76/146 53/14/147 54/13/148
f 5/47/149 7/72/150 55/15/151 53/14/152
f 7/24/153 8/70/154 56/16/155 55/15/156
f 8/23/157 6/74/158 54/13/159 56/16/160
f 17/56/161 18/66/162 58/18/163 57/17/164
f 18/55/165 19/64/166 59/19/167 58/18/168
f 19/32/169 20/62/170 60/20/171 59/19/172
f 20/31/173 17/68/174 57/17/175 60/20/176
f 62/115/177 61/116/178 69/117/179 70/118/180
f 63/119/181 62/115/182 70/118/183 71/120/184
f 64/121/185 63/119/186 71/120/187 72/122/188
f 65/123/189 64/124/190 72/125/191 73/126/192
f 66/127/193 65/123/194 73/126/195 74/128/196
f 67/129/197 66/127/198 74/128/199 75/130/200
f 68/131/201 67/129/202 75/130/203 76/132/204
f 61/116/205 68/131/206 76/132/207 69/117/208
f 70/118/209 69/117/210 77/133/211 78/134/212
f 71/120/213 70/118/214 78/134/215 79/135/216
f 72/122/217 71/120/218 79/135/219 80/136/220
f 73/126/221 72/125/222 80/137/223 81/138/224
f 74/128/225 73/126/226 81/138/227 82/139/228
f 75/130/229 74/128/230 82/139/231 83/140/232
f 76/132/233 75/130/234 83/140/235 84/141/236
f 69/117/237 76/132/238 84/141/239 77/133/240
f 78/134/241 77/133/242 85/142/243 86/143/244
f 79/135/245 78/134/246 86/143/247 87/144/248
f 80/136/249 79/135/250 87/144/251 88/145/252
f 81/138/253 80/137/254 88/146/255 89/147/256
f 82/139/257 81/138/258 89/147/259 90/148/260
f 83/140/261 82/139/262 90/148/263 91/149/264
f 84/141/265 83/140/266 91/149/267 92/150/268
f 77/133/269 84/141/270 92/150/271 85/142/272
f 86/143/273 85/142/274 93/151/275 94/152/276
f 87/144/277 86/143/278 94/152/279 95/153/280
f 88/145/281 87/144/282 95/153/283 96/154/284
f 89/147/285 88/146/286 96/155/287 97/156/288
f 90/148/289 89/147/290 97/156/291 98/157/292
f 91/149/293 90/148/294 98/157/295 99/158/296
f 92/150/297 91/149/298 99/158/299 100/159/300
f 85/142/301 92/150/302 100/159/303 93/151/304
f 94/152/305 93/151/306 101/160/307 102/161/308
f 95/153/309 94/152/310 102/161/311 103/162/312
f 96/154/313 95/153/314 103/162/315 104/163/316
f 97/156/317 96/155/318 104/164/319 105/165/320
f 98/157/321 97/156/322 105/165/323 106/166/324
f 99/158/325 98/157/326 106/166/327 107/167/328
f 100/159/329 99/158/330 107/167/331 108/168/332
f 93/151/333 100/159/334 108/168/335 101/160/336
f 102/161/337 101/160/338 109/169/339 110/170/340
f 103/162/341 102/161/342 110/170/343 111/171/344
f 104/163/345 103/162/346 111/171/347 112/172/348
f 105/165/349 104/164/350 112/173/351 113/174/352
f 106/166/353 105/165/354 113/174/355 114/175/356
f 107/167/357 106/166/358 114/175/359 115/176/360
f 108/168/361 107/167/362 115/176/363 116/177/364
f 101/160/365 108/168/366 116/177/367 109/169/368
f 110/170/369 109/169/370 61/178/371 62/179/372
f 111/171/373 110/170/374 62/179/375 63/180/376
f 112/172/377 111/171/378 63/180/379 64/181/380
f 113/174/381 112/173/382 64/182/383 65/183/384
f 114/175/385 113/174/386 65/183/387 66/184/388
f 115/176/389 114/175/390 66/184/391 67/185/392
f 116/177/393 115/176/394 67/185/395 68/186/396
f 109/169/397 116/177/398 68/186/399 61/178/400
