# This file uses centimeters as units for non-parametric coordinates.

mtllib HarpoonGunProjectileLoose_LP_OBJ.mtl
g default
v 3.010255 3.107186 -0.034827
v 3.010255 3.091178 -0.066245
v 3.010255 3.066245 -0.091178
v 3.010255 3.034827 -0.107186
v 3.010255 3.000000 -0.112702
v 3.010255 2.965173 -0.107186
v 3.010255 2.933755 -0.091178
v 3.010255 2.908822 -0.066245
v 3.010255 2.892813 -0.034827
v 3.010255 2.887297 0.000000
v 3.010255 2.892813 0.034827
v 3.010255 2.908822 0.066245
v 3.010255 2.933755 0.091178
v 3.010255 2.965173 0.107186
v 3.010255 3.000000 0.112702
v 3.010255 3.034827 0.107186
v 3.010255 3.066245 0.091178
v 3.010255 3.091178 0.066245
v 3.010255 3.107186 0.034827
v 3.010255 3.112702 0.000000
v 1.010255 3.107186 -0.034827
v 1.010255 3.091178 -0.066245
v 1.010255 3.066245 -0.091178
v 1.010255 3.034827 -0.107186
v 1.010255 3.000000 -0.112702
v 1.010255 2.965173 -0.107186
v 1.010255 2.933755 -0.091178
v 1.010255 2.908822 -0.066245
v 1.010255 2.892813 -0.034827
v 1.010255 2.887297 0.000000
v 1.010255 2.892813 0.034827
v 1.010255 2.908822 0.066245
v 1.010255 2.933755 0.091178
v 1.010255 2.965173 0.107186
v 1.010255 3.000000 0.112702
v 1.010255 3.034827 0.107186
v 1.010255 3.066245 0.091178
v 1.010255 3.091178 0.066245
v 1.010255 3.107186 0.034827
v 1.010255 3.112702 0.000000
v 1.010255 3.000000 0.000000
v 3.086234 3.205248 -0.066689
v 3.086234 3.174594 -0.126850
v 3.440204 3.000000 -0.000000
v 3.086234 3.126850 -0.174595
v 3.086234 3.066689 -0.205248
v 3.086234 3.000000 -0.215811
v 3.086234 2.933311 -0.205248
v 3.086234 2.873149 -0.174595
v 3.086234 2.825405 -0.126850
v 3.086234 2.794751 -0.066689
v 3.086234 2.784189 0.000000
v 3.086234 2.794751 0.066689
v 3.086234 2.825405 0.126850
v 3.086234 2.873149 0.174595
v 3.086234 2.933311 0.205248
v 3.086234 3.000000 0.215811
v 3.086234 3.066689 0.205248
v 3.086234 3.126850 0.174595
v 3.086234 3.174594 0.126850
v 3.086234 3.205248 0.066689
v 3.086234 3.215811 0.000000
vt 0.322544 0.022157
vt 0.319285 0.013916
vt 0.313633 0.007082
vt 0.306158 0.002280
vt 0.297557 0.000011
vt 0.288664 0.000627
vt 0.280417 0.003951
vt 0.273616 0.009647
vt 0.268912 0.017151
vt 0.266757 0.025728
vt 0.267350 0.034543
vt 0.270629 0.042740
vt 0.276272 0.049524
vt 0.283729 0.054238
vt 0.292277 0.056426
vt 0.301085 0.055874
vt 0.309298 0.052632
vt 0.316115 0.047013
vt 0.320869 0.039559
vt 0.323087 0.030995
vt 0.816150 0.070484
vt 0.818890 0.070492
vt 0.821631 0.070501
vt 0.824371 0.070510
vt 0.827111 0.070518
vt 0.829852 0.070527
vt 0.832592 0.070536
vt 0.835333 0.070544
vt 0.838073 0.070553
vt 0.840814 0.070562
vt 0.843554 0.070570
vt 0.846294 0.070579
vt 0.849035 0.070588
vt 0.851775 0.070596
vt 0.854516 0.070605
vt 0.857256 0.070613
vt 0.859997 0.070622
vt 0.862737 0.070631
vt 0.865478 0.070639
vt 0.868218 0.070648
vt 0.870958 0.070657
vt 0.815660 0.225921
vt 0.818400 0.225929
vt 0.821140 0.225938
vt 0.823881 0.225947
vt 0.826621 0.225955
vt 0.829362 0.225964
vt 0.832102 0.225972
vt 0.834843 0.225981
vt 0.837583 0.225990
vt 0.840323 0.225998
vt 0.843064 0.226007
vt 0.845804 0.226016
vt 0.848545 0.226024
vt 0.851285 0.226033
vt 0.854026 0.226042
vt 0.856766 0.226050
vt 0.859506 0.226059
vt 0.862247 0.226067
vt 0.864987 0.226076
vt 0.867728 0.226085
vt 0.870468 0.226093
vt 0.412094 0.006065
vt 0.410850 0.003623
vt 0.408912 0.001686
vt 0.406471 0.000441
vt 0.403764 0.000013
vt 0.401057 0.000441
vt 0.398616 0.001686
vt 0.396678 0.003623
vt 0.395434 0.006065
vt 0.395005 0.008772
vt 0.395434 0.011479
vt 0.396678 0.013920
vt 0.398616 0.015858
vt 0.401057 0.017102
vt 0.403764 0.017531
vt 0.406471 0.017102
vt 0.408912 0.015858
vt 0.410850 0.013920
vt 0.412094 0.011479
vt 0.412523 0.008772
vt 0.294981 0.028389
vt 0.403764 0.008772
vt 0.312102 0.014949
vt 0.315432 0.020870
vt 0.307071 0.010429
vt 0.301028 0.007367
vt 0.294305 0.006432
vt 0.287637 0.007716
vt 0.281680 0.010994
vt 0.277017 0.015947
vt 0.274104 0.022097
vt 0.273226 0.028845
vt 0.274474 0.035535
vt 0.277728 0.041514
vt 0.282672 0.046194
vt 0.288824 0.049117
vt 0.295581 0.049993
vt 0.302283 0.048735
vt 0.308271 0.045464
vt 0.312955 0.040499
vt 0.315872 0.034327
vt 0.316729 0.027558
vn -0.077648 0.948185 -0.308084
vn -0.077648 0.806574 -0.586011
vn -0.025350 0.808757 -0.587597
vn -0.025350 0.950751 -0.308917
vn -0.077648 0.586011 -0.806574
vn -0.025350 0.587597 -0.808757
vn -0.077648 0.308084 -0.948185
vn -0.025350 0.308917 -0.950751
vn -0.077648 0.000000 -0.996981
vn -0.025350 0.000000 -0.999679
vn -0.077648 -0.308084 -0.948185
vn -0.025350 -0.308918 -0.950751
vn -0.077648 -0.586011 -0.806574
vn -0.025350 -0.587597 -0.808757
vn -0.077648 -0.806574 -0.586011
vn -0.025350 -0.808757 -0.587597
vn -0.077648 -0.948185 -0.308084
vn -0.025350 -0.950751 -0.308917
vn -0.077648 -0.996981 -0.000000
vn -0.025350 -0.999679 0.000000
vn -0.077648 -0.948185 0.308084
vn -0.025350 -0.950751 0.308917
vn -0.077648 -0.806574 0.586011
vn -0.025350 -0.808757 0.587597
vn -0.077648 -0.586011 0.806574
vn -0.025350 -0.587596 0.808757
vn -0.077648 -0.308084 0.948185
vn -0.025350 -0.308917 0.950751
vn -0.077648 0.000000 0.996981
vn -0.025350 0.000000 0.999679
vn -0.077648 0.308084 0.948185
vn -0.025350 0.308918 0.950751
vn -0.077648 0.586011 0.806574
vn -0.025350 0.587596 0.808757
vn -0.077648 0.806574 0.586011
vn -0.025350 0.808757 0.587597
vn -0.077648 0.948185 0.308084
vn -0.025350 0.950751 0.308917
vn -0.077648 0.996981 -0.000000
vn -0.025350 0.999679 -0.000000
vn 0.124880 0.802683 -0.583185
vn 0.124880 0.943612 -0.306598
vn 1.000000 -0.000000 -0.000000
vn 0.124880 0.583184 -0.802684
vn 0.124880 0.306598 -0.943611
vn 0.124880 0.000000 -0.992172
vn 0.124880 -0.306598 -0.943611
vn 0.124880 -0.583184 -0.802684
vn 0.124880 -0.802684 -0.583184
vn 0.124880 -0.943612 -0.306597
vn 0.124880 -0.992172 0.000000
vn 0.124880 -0.943612 0.306598
vn 0.124880 -0.802683 0.583185
vn 0.124880 -0.583184 0.802684
vn 0.124880 -0.306598 0.943612
vn 0.124880 0.000000 0.992172
vn 0.124880 0.306598 0.943612
vn 0.124880 0.583184 0.802684
vn 0.124880 0.802683 0.583185
vn 0.124880 0.943612 0.306598
vn 0.124880 0.992172 -0.000000
vn -1.000000 0.000000 0.000000
s 1
g HarpoonProjectile HarpoonProjectile
usemtl initialShadingGroup
f 1/21/1 2/22/2 22/43/3 21/42/4
f 2/22/2 3/23/5 23/44/6 22/43/3
f 3/23/5 4/24/7 24/45/8 23/44/6
f 4/24/7 5/25/9 25/46/10 24/45/8
f 5/25/9 6/26/11 26/47/12 25/46/10
f 6/26/11 7/27/13 27/48/14 26/47/12
f 7/27/13 8/28/15 28/49/16 27/48/14
f 8/28/15 9/29/17 29/50/18 28/49/16
f 9/29/17 10/30/19 30/51/20 29/50/18
f 10/30/19 11/31/21 31/52/22 30/51/20
f 11/31/21 12/32/23 32/53/24 31/52/22
f 12/32/23 13/33/25 33/54/26 32/53/24
f 13/33/25 14/34/27 34/55/28 33/54/26
f 14/34/27 15/35/29 35/56/30 34/55/28
f 15/35/29 16/36/31 36/57/32 35/56/30
f 16/36/31 17/37/33 37/58/34 36/57/32
f 17/37/33 18/38/35 38/59/36 37/58/34
f 18/38/35 19/39/37 39/60/38 38/59/36
f 19/39/37 20/40/39 40/61/40 39/60/38
f 20/40/39 1/41/1 21/62/4 40/61/40
f 43/85/41 42/86/42 44/83/43
f 45/87/44 43/85/41 44/83/43
f 46/88/45 45/87/44 44/83/43
f 47/89/46 46/88/45 44/83/43
f 48/90/47 47/89/46 44/83/43
f 49/91/48 48/90/47 44/83/43
f 50/92/49 49/91/48 44/83/43
f 51/93/50 50/92/49 44/83/43
f 52/94/51 51/93/50 44/83/43
f 53/95/52 52/94/51 44/83/43
f 54/96/53 53/95/52 44/83/43
f 55/97/54 54/96/53 44/83/43
f 56/98/55 55/97/54 44/83/43
f 57/99/56 56/98/55 44/83/43
f 58/100/57 57/99/56 44/83/43
f 59/101/58 58/100/57 44/83/43
f 60/102/59 59/101/58 44/83/43
f 61/103/60 60/102/59 44/83/43
f 62/104/61 61/103/60 44/83/43
f 42/86/42 62/104/61 44/83/43
f 21/81/4 22/80/3 41/84/62
f 22/80/3 23/79/6 41/84/62
f 23/79/6 24/78/8 41/84/62
f 24/78/8 25/77/10 41/84/62
f 25/77/10 26/76/12 41/84/62
f 26/76/12 27/75/14 41/84/62
f 27/75/14 28/74/16 41/84/62
f 28/74/16 29/73/18 41/84/62
f 29/73/18 30/72/20 41/84/62
f 30/72/20 31/71/22 41/84/62
f 31/71/22 32/70/24 41/84/62
f 32/70/24 33/69/26 41/84/62
f 33/69/26 34/68/28 41/84/62
f 34/68/28 35/67/30 41/84/62
f 35/67/30 36/66/32 41/84/62
f 36/66/32 37/65/34 41/84/62
f 37/65/34 38/64/36 41/84/62
f 38/64/36 39/63/38 41/84/62
f 39/63/38 40/82/40 41/84/62
f 40/82/40 21/81/4 41/84/62
f 2/2/2 1/1/1 42/86/42 43/85/41
f 3/3/5 2/2/2 43/85/41 45/87/44
f 4/4/7 3/3/5 45/87/44 46/88/45
f 5/5/9 4/4/7 46/88/45 47/89/46
f 6/6/11 5/5/9 47/89/46 48/90/47
f 7/7/13 6/6/11 48/90/47 49/91/48
f 8/8/15 7/7/13 49/91/48 50/92/49
f 9/9/17 8/8/15 50/92/49 51/93/50
f 10/10/19 9/9/17 51/93/50 52/94/51
f 11/11/21 10/10/19 52/94/51 53/95/52
f 12/12/23 11/11/21 53/95/52 54/96/53
f 13/13/25 12/12/23 54/96/53 55/97/54
f 14/14/27 13/13/25 55/97/54 56/98/55
f 15/15/29 14/14/27 56/98/55 57/99/56
f 16/16/31 15/15/29 57/99/56 58/100/57
f 17/17/33 16/16/31 58/100/57 59/101/58
f 18/18/35 17/17/33 59/101/58 60/102/59
f 19/19/37 18/18/35 60/102/59 61/103/60
f 20/20/39 19/19/37 61/103/60 62/104/61
f 1/1/1 20/20/39 62/104/61 42/86/42
